<svg xmlns="http://www.w3.org/2000/svg" viewBox="0 0 569.71 829.45"><defs><style>.cls-1{fill:#f8e926;}.cls-2{fill:#130d0f;}.cls-3{fill:#29aae2;}.cls-4{fill:#fff;}.cls-5{fill:#191910;}.cls-10,.cls-6,.cls-7,.cls-9{fill:none;}.cls-6{stroke:#130e0f;}.cls-10,.cls-6,.cls-7,.cls-8,.cls-9{stroke-miterlimit:10;}.cls-7,.cls-8{stroke:#fff;}.cls-7{stroke-width:8px;}.cls-8{fill:#130e0f;stroke-width:7px;}.cls-10,.cls-9{stroke:#d2d2d4;}.cls-10{stroke-dasharray:1 1;}.cls-11{fill:#1d1d1b;}</style></defs><title>Kopie kunstwerk_1</title><g id="Layer_2" data-name="Layer 2"><g id="driehoek_geel_boven" data-name="driehoek geel boven"><polygon class="cls-1" points="0 216.25 569.71 216.25 284.85 349.17 0 216.25"/></g><g id="Driehoek_geel_midden" data-name="Driehoek geel midden"><polygon class="cls-1" points="287.77 389.13 566 520.47 287.77 658.14 2.92 523.63 287.77 389.13"/></g><g id="Driehoek_geel_onder" data-name="Driehoek geel onder"><polygon class="cls-1" points="284.85 695.72 569.71 829.45 0 829.45 284.85 695.72"/></g><g id="Driehoek_zwart_links" data-name="Driehoek zwart links"><polygon class="cls-2" points="2.92 257.83 243.42 370.18 2.92 484.11 2.92 257.83"/></g><g id="Driehoek_zwart_rechts" data-name="Driehoek zwart rechts"><polygon class="cls-2" points="566 564.82 322.24 675.59 566 791.1 566 564.82"/></g><g id="Driehoek_blauw_links" data-name="Driehoek blauw links"><polygon class="cls-3" points="0 564.82 0 791.1 242.08 677.96 0 564.82"/></g><g id="Driehoek_blauw_rechts" data-name="Driehoek blauw rechts"><polygon class="cls-3" points="565.21 257.83 323.03 370.97 565.21 484.11 565.21 257.83"/></g><g id="Blauwe_cirkel" data-name="Blauwe cirkel"><circle class="cls-3" cx="284.85" cy="277.22" r="38.38"/></g><g id="Witte_cirkel" data-name="Witte cirkel"><circle class="cls-4" cx="284.85" cy="771.32" r="38.38"/></g><g id="Baluwe_maan" data-name="Baluwe maan"><path class="cls-3" d="M50.42,328.51s33.23-14.24,52.75,16.88c0,0,14.24,19.95,2.64,43.73,0,0-5.8,18.51-35.34,23.79,0,0-12.66,1-20-2.11,0,0,19.52-7.92,27.43-27.43C77.85,383.37,90,344.86,50.42,328.51Z"/></g><g id="Gele_zon" data-name="Gele zon"><polygon class="cls-1" points="478.4 325.26 487.37 338 497.39 325.26 499.77 340.38 513.74 332.82 511.11 348.03 526.4 346.71 517.44 359.63 531.41 364.11 519.02 372.82 530.1 383.37 514.54 384.42 520.34 397.61 506.62 394.44 506.1 409.74 494.75 399.19 488.43 413.07 481.31 399.98 469.7 409.74 469.7 394.18 454.4 399.19 460.73 383.89 444.12 383.37 457.31 372.82 444.12 364.64 457.83 359.89 449.13 346.97 464.95 348.03 461.79 333.52 475.5 341.43 478.4 325.26"/></g><g id="Zwarte_zon" data-name="Zwarte zon"><polygon class="cls-5" points="279.71 440.99 285.69 467.5 291.58 440.99 293.95 467.5 303.05 443.76 303.05 469.08 315.71 448.11 311.75 472.64 326.79 453.65 318.88 475.81 337.47 460.77 325.6 481.74 345.38 469.87 332.33 487.28 352.5 480.16 336.28 495.59 358.44 491.24 339.84 503.89 362.39 503.89 341.82 512.6 363.98 514.97 342.22 522.09 363.98 528.03 341.82 530 362 539.5 339.45 539.5 358.04 550.97 335.49 548.2 352.11 562.44 331.93 555.72 346.57 573.52 326 562.05 336.68 581.43 319.27 568.38 326.39 588.95 310.57 572.33 315.71 593.3 303.45 576.68 303.45 599.24 293.95 577.87 292.37 602 285.69 578.66 279.71 602 275.75 577.48 267.45 600.03 267.45 575.89 255.58 596.47 258.74 572.33 244.11 589.35 251.62 568.38 234.22 582.62 245.29 562.05 225.91 573.13 239.75 554.93 218.39 563.24 235.01 548.2 211.67 552.55 231.45 539.89 208.9 540.68 228.28 530.79 205.73 528.82 229.07 521.5 205.73 516.16 229.07 513.39 208.9 503.89 230.66 504.29 211.67 491.24 233.82 495.98 215.62 479.37 239.36 488.47 223.53 468.69 246.09 483.32 233.43 460.77 252.02 476.2 243.71 452.47 259.54 471.45 254.39 446.53 267.84 467.5 266.26 442.97 276.94 467.89 279.71 440.99"/></g><g id="Witte_wolk_bol_1" data-name="Witte wolk bol 1"><circle class="cls-4" cx="80.39" cy="665.04" r="26.37"/></g><g id="Witte_wolk_bolk_2" data-name="Witte wolk bolk 2"><circle class="cls-4" cx="107.77" cy="679.84" r="24.25"/></g><g id="Witte_wolk_bol_3" data-name="Witte wolk bol 3"><circle class="cls-4" cx="82.52" cy="693.4" r="14.56"/></g><g id="Witte_wolk_bol_4" data-name="Witte wolk bol 4"><circle class="cls-4" cx="53.02" cy="679.84" r="27.89"/></g><g id="Gele_ster" data-name="Gele ster"><polygon class="cls-1" points="488.03 627.06 476.95 660.82 440.56 660.82 469.57 681.92 459.55 715.15 488.03 695.72 517.57 715.15 505.96 681.92 534.98 660.29 499.11 660.29 488.03 627.06"/></g><g id="Logo_zon" data-name="Logo zon"><line class="cls-6" x1="539.23" y1="58.44" x2="526.9" y2="70.77"/><line class="cls-6" x1="535.27" y1="50.93" x2="519.65" y2="66.55"/><line class="cls-6" x1="529.73" y1="44.99" x2="514.95" y2="59.78"/><line class="cls-6" x1="526.17" y1="38.66" x2="506" y2="58.84"/><line class="cls-6" x1="519.65" y1="32.33" x2="501.01" y2="50.96"/><line class="cls-6" x1="514.1" y1="25.31" x2="492.64" y2="49.79"/><line class="cls-6" x1="507.92" y1="20.69" x2="488.1" y2="48.13"/><line class="cls-6" x1="499.27" y1="18.49" x2="487.4" y2="38.66"/><line class="cls-6" x1="491.76" y1="14.53" x2="480.68" y2="38.27"/><line class="cls-6" x1="483.84" y1="10.58" x2="475.14" y2="38.27"/><line class="cls-6" x1="475.14" y1="10.58" x2="469.21" y2="41.65"/><line class="cls-6" x1="467.62" y1="7.02" x2="463.67" y2="41.65"/><line class="cls-6" x1="459.71" y1="7.02" x2="458.13" y2="47.37"/><line class="cls-6" x1="452.19" y1="7.02" x2="453.78" y2="47.37"/><line class="cls-6" x1="443.49" y1="7.02" x2="449.43" y2="47.37"/><line class="cls-6" x1="435.18" y1="10.58" x2="446.46" y2="58.84"/><line class="cls-6" x1="427.27" y1="12.55" x2="445.07" y2="64.61"/><line class="cls-6" x1="419.76" y1="14.53" x2="440.82" y2="64.61"/><line class="cls-6" x1="411.84" y1="18.49" x2="435.18" y2="59.78"/><line class="cls-6" x1="405.12" y1="24.33" x2="435.18" y2="66.55"/><line class="cls-6" x1="399.18" y1="28.58" x2="430.29" y2="68.73"/><line class="cls-6" x1="393.25" y1="34.41" x2="427.27" y2="68.73"/><line class="cls-6" x1="386.92" y1="39.57" x2="425.29" y2="73.08"/><line class="cls-6" x1="381.78" y1="45.44" x2="433.21" y2="83.76"/><line class="cls-6" x1="377.82" y1="52.39" x2="427.27" y2="83.76"/><line class="cls-6" x1="373.87" y1="59.78" x2="427.27" y2="86.93"/><line class="cls-6" x1="370.7" y1="66.55" x2="435.18" y2="93.47"/><line class="cls-6" x1="367.54" y1="75.06" x2="433.21" y2="93.47"/><line class="cls-6" x1="365.56" y1="83.76" x2="438.74" y2="95.63"/><line class="cls-6" x1="363.97" y1="91.67" x2="420.15" y2="95.63"/><line class="cls-6" x1="363.97" y1="99.19" x2="417.38" y2="99.19"/><line class="cls-6" x1="363.97" y1="108.29" x2="417.38" y2="103.94"/><line class="cls-6" x1="365.56" y1="116.2" x2="411.84" y2="108.29"/><line class="cls-6" x1="367.54" y1="123.72" x2="419.76" y2="109.87"/><line class="cls-6" x1="370.7" y1="132.03" x2="419.76" y2="112.25"/><line class="cls-6" x1="373.87" y1="139.15" x2="430.29" y2="112.25"/><line class="cls-6" x1="377.82" y1="146.66" x2="425.29" y2="116.8"/><line class="cls-6" x1="381.78" y1="153.39" x2="423.51" y2="122.14"/><line class="cls-6" x1="386.92" y1="160.11" x2="425.29" y2="125.7"/><line class="cls-6" x1="393.25" y1="166.44" x2="425.29" y2="131.73"/><line class="cls-6" x1="399.18" y1="171.59" x2="433.21" y2="126.71"/><line class="cls-6" x1="405.12" y1="176.33" x2="433.21" y2="135.59"/><polyline class="cls-6" points="420.15 184.25 440.82 131.73 411.84 180.29"/><line class="cls-6" x1="427.27" y1="188.2" x2="446.46" y2="126.71"/><line class="cls-6" x1="435.18" y1="188.2" x2="449.43" y2="131.73"/><line class="cls-6" x1="443.49" y1="190.58" x2="449.43" y2="141.12"/><line class="cls-6" x1="452.19" y1="190.58" x2="453.78" y2="137.76"/><line class="cls-6" x1="459.71" y1="190.58" x2="458.13" y2="139.15"/><line class="cls-6" x1="467.62" y1="190.58" x2="463.67" y2="153.39"/><line class="cls-6" x1="476.72" y1="188.2" x2="469.21" y2="157.46"/><line class="cls-6" x1="483.84" y1="186.22" x2="472.17" y2="144.29"/><line class="cls-6" x1="491.76" y1="184.25" x2="476.72" y2="141.12"/><line class="cls-6" x1="499.27" y1="179.89" x2="479.49" y2="142.91"/><line class="cls-6" x1="506" y1="176.33" x2="486.22" y2="144.29"/><line class="cls-6" x1="513.12" y1="171.98" x2="486.22" y2="137.76"/><line class="cls-6" x1="519.65" y1="165.85" x2="496.11" y2="142.91"/><line class="cls-6" x1="526.17" y1="159.97" x2="501.01" y2="141.12"/><line class="cls-6" x1="529.73" y1="153.39" x2="516.08" y2="144.29"/><line class="cls-6" x1="535.27" y1="146.66" x2="506" y2="134"/><line class="cls-6" x1="539.23" y1="139.15" x2="519.65" y2="129.26"/><circle class="cls-7" cx="449.43" cy="99.19" r="95.19"/></g><g id="Logo"><circle class="cls-8" cx="463.67" cy="99.19" r="74.82"/><path class="cls-4" d="M407.16,89.63a12.64,12.64,0,0,0,4.82,1c1.7,0,2.54-.53,2.54-1.37s-.83-1.27-2.93-1.91c-3.13-1-5.22-2.55-5.22-5,0-3,2.77-5.21,7.46-5.21a13.34,13.34,0,0,1,5,.85l-1,3.57a10.61,10.61,0,0,0-4-.79c-1.52,0-2.35.5-2.35,1.22s1,1.19,3.33,2c3.34,1.1,4.84,2.71,4.84,5,0,2.87-2.5,5.32-7.92,5.32a14.74,14.74,0,0,1-5.46-1Z"/><path class="cls-4" d="M427.23,77.41v9.45c0,2.51,1,3.93,2.94,3.93s2.94-1.29,2.94-3.93V77.41h5v9.18c0,5.15-2.86,7.74-8.08,7.74s-7.76-2.5-7.76-7.84V77.41Z"/><path class="cls-4" d="M457.2,88.1c-.06-1.89-.11-4.11-.11-6.72H457c-.57,2.22-1.36,4.7-2,6.53l-1.84,5.8h-3.89l-1.56-5.78c-.47-1.79-1-4.26-1.48-6.55h-.05c-.11,2.35-.2,4.83-.28,6.72l-.29,6h-4.58l1.15-16.65h6.69l1.23,4.48c.51,1.86,1.06,4.06,1.44,6.11h.1c.52-2,1.14-4.39,1.68-6.14l1.39-4.45h6.55l.93,16.65h-4.83Z"/><path class="cls-4" d="M481,88.1c-.06-1.89-.11-4.11-.1-6.72h-.08c-.57,2.22-1.36,4.7-2,6.53l-1.83,5.8h-3.9l-1.55-5.78c-.48-1.79-1.05-4.26-1.48-6.55h-.06c-.1,2.35-.2,4.83-.28,6.72l-.28,6h-4.59l1.15-16.65h6.69L474,81.89c.51,1.86,1.06,4.06,1.45,6.11h.09c.52-2,1.14-4.39,1.68-6.14l1.4-4.45h6.54l.93,16.65h-4.83Z"/><path class="cls-4" d="M500.8,87.35h-6.67v3.07h7.46v3.64H489.15V77.41H501.2v3.64h-7.07v2.69h6.67Z"/><path class="cls-4" d="M504.36,77.64a44.92,44.92,0,0,1,6-.36c2.85,0,4.89.35,6.29,1.3a4.11,4.11,0,0,1,1.83,3.63,4.54,4.54,0,0,1-3.18,4v.08a4.27,4.27,0,0,1,2.37,3c.56,1.7,1.17,4.12,1.53,4.76h-5.08a18.63,18.63,0,0,1-1.3-3.84c-.51-2-1.19-2.4-2.73-2.4h-.8v6.24h-4.93Zm4.93,7h1.29c1.88,0,3-.82,3-2.07s-.92-2-2.57-2a8.51,8.51,0,0,0-1.68.1Z"/><path class="cls-4" d="M409.75,97.93H407.9V96.46h5.68v1.47H411.7v5h-1.95Z"/><path class="cls-4" d="M416.43,96.46v2.42h2.36V96.46h1.95V103h-1.95V100.4h-2.36V103h-1.95V96.46Z"/><path class="cls-4" d="M426.64,100.36H424v1.2H427V103h-4.87V96.46h4.72v1.43H424v1h2.61Z"/><path class="cls-4" d="M429.94,101.47l-.41,1.51h-2l2.11-6.52h2.6l2.17,6.52h-2.11l-.46-1.51Zm1.61-1.29L431.22,99c-.12-.37-.25-.9-.37-1.28h0c-.11.38-.21.92-.32,1.29l-.31,1.16Z"/><path class="cls-4" d="M435.8,97.93h-1.86V96.46h5.69v1.47h-1.89v5H435.8Z"/><path class="cls-4" d="M440.53,96.55a19.15,19.15,0,0,1,2.35-.14,4.42,4.42,0,0,1,2.46.51,1.6,1.6,0,0,1,.72,1.42,1.77,1.77,0,0,1-1.25,1.58v0a1.71,1.71,0,0,1,.93,1.17c.22.66.46,1.61.6,1.86h-2a7.08,7.08,0,0,1-.51-1.5c-.2-.78-.46-.94-1.07-.94h-.31V103h-1.93Zm1.93,2.74H443c.73,0,1.15-.32,1.15-.81s-.36-.77-1-.78a3.65,3.65,0,0,0-.66,0Z"/><path class="cls-4" d="M451.74,100.36h-2.61v1.2h2.92V103h-4.87V96.46h4.72v1.43h-2.77v1h2.61Z"/><path class="cls-4" d="M455.27,96.46h4.66v1.43h-2.72v1.2h2.56v1.42h-2.56V103h-1.94Z"/><path class="cls-4" d="M465.7,100.36h-2.61v1.2H466V103h-4.87V96.46h4.72v1.43h-2.77v1h2.61Z"/><path class="cls-4" d="M467.22,101.25a4.91,4.91,0,0,0,1.89.4c.66,0,1-.21,1-.54s-.32-.49-1.15-.74c-1.22-.39-2-1-2-2,0-1.15,1.09-2,2.92-2a5.21,5.21,0,0,1,2,.34l-.41,1.39a4.25,4.25,0,0,0-1.58-.31c-.59,0-.92.2-.92.48s.39.47,1.31.78c1.31.43,1.89,1,1.89,2,0,1.13-1,2.09-3.1,2.09a5.8,5.8,0,0,1-2.14-.4Z"/><path class="cls-4" d="M474.55,97.93H472.7V96.46h5.69v1.47H476.5v5h-1.95Z"/><path class="cls-4" d="M481.23,96.46V103h-1.94V96.46Z"/><path class="cls-4" d="M484.34,103,482,96.46h2.14l.77,2.57a21.54,21.54,0,0,1,.6,2.28h0c.18-.8.39-1.55.6-2.25l.79-2.6H489L486.64,103Z"/><path class="cls-4" d="M491.15,101.47l-.41,1.51h-2l2.11-6.52h2.59L495.6,103h-2.1l-.47-1.51Zm1.61-1.29L492.43,99c-.11-.37-.25-.9-.36-1.28h0c-.11.38-.22.92-.33,1.29l-.31,1.16Z"/><path class="cls-4" d="M496.52,96.46h2v5.06h2.8V103h-4.75Z"/><path class="cls-4" d="M410.86,122.53l-4.26-16.65H412l1.06,6.18c.33,1.94.67,4.14,1,5.85h0c.3-1.87.68-3.87,1.08-5.91l1.2-6.12h5.32l1.14,6.42c.35,1.92.58,3.62.84,5.5h.06c.25-1.87.59-3.83.93-5.8l1.09-6.12h5.05l-4.59,16.65h-5.41L419.48,116c-.28-1.46-.53-3-.75-5h-.06c-.32,2-.56,3.52-.9,5l-1.4,6.5Z"/><path class="cls-4" d="M450,114c0,5.36-3.59,8.77-9.32,8.77s-8.92-3.88-8.92-8.5c0-4.85,3.54-8.7,9.23-8.7C447,105.61,450,109.58,450,114Zm-13,.19c0,3.13,1.52,5,3.9,5s3.82-2.08,3.82-5.09-1.44-5-3.85-5S437,111.16,437,114.23Z"/><path class="cls-4" d="M452.64,106.11a44.69,44.69,0,0,1,6-.36c2.84,0,4.88.36,6.28,1.3a4.12,4.12,0,0,1,1.83,3.63,4.52,4.52,0,0,1-3.18,4v.09a4.26,4.26,0,0,1,2.38,3c.56,1.69,1.17,4.11,1.53,4.75h-5.09a19.37,19.37,0,0,1-1.3-3.83c-.5-2-1.18-2.41-2.72-2.41h-.81v6.24h-4.92Zm4.92,7h1.3c1.87,0,2.95-.82,2.95-2.07s-.91-2-2.57-2a9.53,9.53,0,0,0-1.68.1Z"/><path class="cls-4" d="M469.64,105.88h4.92V113h.06c.38-.63.79-1.24,1.2-1.84l3.57-5.24h6.11L479.6,113l6.13,9.56H480l-3.91-6.75-1.49,1.71v5h-4.92Z"/><path class="cls-4" d="M487.76,118.1a12.45,12.45,0,0,0,4.82,1c1.7,0,2.54-.53,2.54-1.37s-.83-1.27-2.93-1.91c-3.13-1-5.22-2.54-5.22-5,0-2.94,2.77-5.21,7.46-5.21a13.21,13.21,0,0,1,5,.86l-1,3.56a10.87,10.87,0,0,0-4-.79c-1.52,0-2.35.5-2.35,1.23s1,1.18,3.33,2c3.35,1.1,4.84,2.7,4.84,5,0,2.88-2.49,5.32-7.92,5.32a14.63,14.63,0,0,1-5.46-1Z"/></g><g id="Tekst_achtergrond" data-name="Tekst achtergrond"><rect class="cls-1" x="23.2" y="8.6" width="104.44" height="44.31"/><line class="cls-9" x1="23.2" y1="7.94" x2="23.7" y2="7.94"/><line class="cls-10" x1="24.71" y1="7.94" x2="126.64" y2="7.94"/><line class="cls-9" x1="127.14" y1="7.94" x2="127.64" y2="7.94"/><line class="cls-9" x1="23.2" y1="53.56" x2="23.7" y2="53.56"/><line class="cls-10" x1="24.71" y1="53.56" x2="126.64" y2="53.56"/><line class="cls-9" x1="127.14" y1="53.56" x2="127.64" y2="53.56"/><line class="cls-9" x1="23.2" y1="68.73" x2="23.7" y2="68.73"/><line class="cls-10" x1="24.71" y1="68.73" x2="126.64" y2="68.73"/><line class="cls-9" x1="127.14" y1="68.73" x2="127.64" y2="68.73"/><line class="cls-9" x1="23.2" y1="83.76" x2="23.7" y2="83.76"/><line class="cls-10" x1="24.71" y1="83.76" x2="126.64" y2="83.76"/><line class="cls-9" x1="127.14" y1="83.76" x2="127.64" y2="83.76"/><line class="cls-9" x1="23.2" y1="99.19" x2="23.7" y2="99.19"/><line class="cls-10" x1="24.71" y1="99.19" x2="126.64" y2="99.19"/><line class="cls-9" x1="127.14" y1="99.19" x2="127.64" y2="99.19"/></g><g id="Tekst"><path class="cls-11" d="M30.54,46.23l-.67,2.42h-2.2l2.88-9.44h2.79l2.94,9.44H34l-.72-2.42Zm2.4-1.59-.59-2c-.16-.56-.33-1.26-.47-1.82h0c-.14.56-.28,1.28-.43,1.82l-.57,2Z"/><path class="cls-11" d="M37.66,44.06c0-1,0-1.67-.06-2.26h1.83l.08,1.27h.05a2,2,0,0,1,1.85-1.43,2.13,2.13,0,0,1,.46,0v2a2.4,2.4,0,0,0-.58-.06,1.37,1.37,0,0,0-1.46,1.08,2.23,2.23,0,0,0,0,.47v3.47H37.66Z"/><path class="cls-11" d="M45.93,39.84v2h1.53v1.57H45.93v2.48c0,.83.2,1.21.84,1.21A3.1,3.1,0,0,0,47.4,47l0,1.62A4.5,4.5,0,0,1,46,48.8a2.21,2.21,0,0,1-1.61-.6,2.81,2.81,0,0,1-.59-2v-2.8h-.91V41.8h.91V40.32Z"/><path class="cls-11" d="M49,46.8a4.28,4.28,0,0,0,1.83.5c.64,0,.91-.21.91-.56s-.21-.53-1-.79c-1.43-.47-2-1.25-2-2.05,0-1.29,1.09-2.26,2.79-2.26a4.56,4.56,0,0,1,1.93.4l-.37,1.47a3.5,3.5,0,0,0-1.48-.39c-.52,0-.82.21-.82.56s.27.5,1.11.79c1.3.44,1.85,1.11,1.86,2.11,0,1.28-1,2.22-3,2.22a4.94,4.94,0,0,1-2.22-.48Z"/><path class="cls-11" d="M58.51,39.21h5.76V41H60.64v2.16H64v1.74h-3.4v3.79H58.51Z"/><path class="cls-11" d="M67.37,45.91c.06.88.94,1.3,1.93,1.3a5.6,5.6,0,0,0,1.89-.29l.28,1.45A6.61,6.61,0,0,1,69,48.8c-2.32,0-3.66-1.35-3.66-3.49a3.45,3.45,0,0,1,3.46-3.67c2.22,0,3.06,1.73,3.06,3.43a3.85,3.85,0,0,1-.08.84Zm2.5-1.46a1.24,1.24,0,0,0-1.19-1.39,1.41,1.41,0,0,0-1.33,1.39Z"/><path class="cls-11" d="M73.39,46.8a4.28,4.28,0,0,0,1.83.5c.64,0,.92-.21.92-.56s-.22-.53-1-.79c-1.43-.47-2-1.25-1.95-2.05,0-1.29,1.08-2.26,2.78-2.26a4.56,4.56,0,0,1,1.93.4l-.37,1.47A3.5,3.5,0,0,0,76,43.12c-.52,0-.82.21-.82.56s.27.5,1.11.79c1.3.44,1.85,1.11,1.85,2.11,0,1.28-1,2.22-3,2.22A4.94,4.94,0,0,1,73,48.32Z"/><path class="cls-11" d="M82.13,39.84v2h1.53v1.57H82.13v2.48c0,.83.21,1.21.84,1.21A3,3,0,0,0,83.6,47l0,1.62a4.45,4.45,0,0,1-1.38.18,2.23,2.23,0,0,1-1.61-.6,2.81,2.81,0,0,1-.58-2v-2.8h-.92V41.8h.92V40.32Z"/><path class="cls-11" d="M87.37,39.89A1.06,1.06,0,0,1,86.22,41a1.07,1.07,0,1,1,1.15-1.07Zm-2.2,8.76V41.8H87.3v6.85Z"/><path class="cls-11" d="M90.88,41.8,91.8,45c.17.58.28,1.12.39,1.67h0c.1-.56.22-1.08.38-1.67l.88-3.18h2.24l-2.56,6.85H91.06l-2.5-6.85Z"/><path class="cls-11" d="M100.79,48.65l-.13-.68h0a2.46,2.46,0,0,1-2,.84,2.1,2.1,0,0,1-2.22-2.1c0-1.79,1.6-2.63,4-2.63V44c0-.36-.2-.88-1.26-.88a4,4,0,0,0-1.89.51l-.39-1.36a5.45,5.45,0,0,1,2.66-.62c2.29,0,3,1.35,3,3V47a10.3,10.3,0,0,0,.11,1.66Zm-.26-3.24c-1.12,0-2,.26-2,1.08a.77.77,0,0,0,.85.82,1.16,1.16,0,0,0,1.1-.79,1.42,1.42,0,0,0,0-.36Z"/><path class="cls-11" d="M104.56,38.71h2.13v9.94h-2.13Z"/><path class="cls-11" d="M30.18,26.76H27.63V25h7.26v1.79H32.31v7.65H30.18Z"/><path class="cls-11" d="M36.06,24.47h2.13v3.91h0a2.51,2.51,0,0,1,.84-.71,2.37,2.37,0,0,1,1.11-.27c1.36,0,2.4.94,2.4,3v4H40.43V30.64c0-.9-.31-1.52-1.1-1.52a1.13,1.13,0,0,0-1.07.76,1.39,1.39,0,0,0-.07.46v4.07H36.06Z"/><path class="cls-11" d="M46.19,31.67c.06.88.93,1.3,1.93,1.3A5.6,5.6,0,0,0,50,32.68l.28,1.44a6.61,6.61,0,0,1-2.48.44c-2.32,0-3.66-1.36-3.66-3.49a3.45,3.45,0,0,1,3.46-3.67c2.22,0,3.06,1.73,3.06,3.42a3.89,3.89,0,0,1-.08.85Zm2.5-1.46a1.24,1.24,0,0,0-1.2-1.39,1.41,1.41,0,0,0-1.32,1.39Z"/><path class="cls-11" d="M56.12,34.41,56,33.73h0a2.45,2.45,0,0,1-2,.83,2.09,2.09,0,0,1-2.22-2.09c0-1.79,1.6-2.64,4-2.63v-.09c0-.36-.2-.89-1.26-.88a3.89,3.89,0,0,0-1.89.51L52.26,28a5.59,5.59,0,0,1,2.66-.61c2.29,0,3,1.35,3,3v2.39A9.33,9.33,0,0,0,58,34.41Zm-.26-3.24c-1.12,0-2,.26-2,1.08a.77.77,0,0,0,.85.82,1.16,1.16,0,0,0,1.1-.79,1.42,1.42,0,0,0,0-.36Z"/><path class="cls-11" d="M62.15,25.6v1.95h1.54v1.58H62.15v2.48c0,.83.21,1.21.84,1.21a2.52,2.52,0,0,0,.64-.07v1.62a4.39,4.39,0,0,1-1.38.19,2.2,2.2,0,0,1-1.6-.6,2.78,2.78,0,0,1-.59-2v-2.8h-.91V27.55h.91V26.08Z"/><path class="cls-11" d="M65.19,29.81c0-1,0-1.67,0-2.26H67l.08,1.27h0A2,2,0,0,1,69,27.4a2,2,0,0,1,.45,0v2a2.84,2.84,0,0,0-.57-.06,1.37,1.37,0,0,0-1.46,1.09,2.23,2.23,0,0,0,0,.47v3.47H65.19Z"/><path class="cls-11" d="M72.33,31.67c.06.88.93,1.3,1.93,1.3a5.5,5.5,0,0,0,1.88-.29l.29,1.44a6.61,6.61,0,0,1-2.48.44c-2.33,0-3.66-1.36-3.66-3.49a3.45,3.45,0,0,1,3.46-3.67c2.22,0,3.06,1.73,3.06,3.42a3.89,3.89,0,0,1-.08.85Zm2.5-1.46a1.24,1.24,0,0,0-1.2-1.39,1.41,1.41,0,0,0-1.32,1.39Z"/><path class="cls-11" d="M85.36,34.41l-.12-.68h0a2.42,2.42,0,0,1-2,.83A2.09,2.09,0,0,1,81,32.47c0-1.79,1.6-2.64,4-2.63v-.09c0-.36-.2-.89-1.25-.88a3.86,3.86,0,0,0-1.89.51L81.51,28a5.55,5.55,0,0,1,2.66-.61,2.66,2.66,0,0,1,3,3v2.39a10.39,10.39,0,0,0,.11,1.66Zm-.26-3.24c-1.12,0-2,.26-2,1.08a.77.77,0,0,0,.84.82,1.18,1.18,0,0,0,1.11-.79,1.42,1.42,0,0,0,0-.36Z"/><path class="cls-11" d="M89.13,29.74c0-.85,0-1.57,0-2.19h1.85l.1.95h0a2.48,2.48,0,0,1,2.12-1.1c1.4,0,2.45.93,2.45,3v4.06H93.51v-3.8c0-.88-.32-1.49-1.08-1.49a1.16,1.16,0,0,0-1.09.81,1.6,1.6,0,0,0-.07.52v4H89.13Z"/><path class="cls-11" d="M104.26,24.47v7.89c0,.78,0,1.59,0,2h-1.89l-.09-1h0a2.38,2.38,0,0,1-2.15,1.15c-1.62,0-2.92-1.38-2.92-3.52,0-2.3,1.43-3.64,3.06-3.64a2.08,2.08,0,0,1,1.81.78h0V24.47Zm-2.14,6a2.42,2.42,0,0,0,0-.38,1.27,1.27,0,0,0-1.24-1c-1,0-1.47.86-1.47,1.94s.57,1.88,1.46,1.88a1.25,1.25,0,0,0,1.23-1,2.39,2.39,0,0,0,0-.48Z"/><path class="cls-11" d="M30.18,14.14H27.63v-1.8h7.26v1.8H32.31v7.64H30.18Z"/><path class="cls-11" d="M41.86,18.29a3.44,3.44,0,0,1-3.62,3.65,3.36,3.36,0,0,1-3.54-3.53,3.43,3.43,0,0,1,3.67-3.64A3.34,3.34,0,0,1,41.86,18.29Zm-5,.07c0,1.17.49,2.06,1.4,2.06s1.36-.84,1.36-2.07c0-1-.39-2.05-1.36-2.05S36.9,17.34,36.9,18.36Z"/><path class="cls-11" d="M43.45,17.19c0-1,0-1.67-.06-2.26h1.84l.07,1.27h.06a2,2,0,0,1,1.85-1.43,2.09,2.09,0,0,1,.45,0v2a2.26,2.26,0,0,0-.57-.06,1.36,1.36,0,0,0-1.46,1.08,2.33,2.33,0,0,0,0,.48v3.46H43.45Z"/><path class="cls-11" d="M55.7,18.29a3.43,3.43,0,0,1-3.61,3.65,3.36,3.36,0,0,1-3.54-3.53,3.43,3.43,0,0,1,3.66-3.64A3.33,3.33,0,0,1,55.7,18.29Zm-5,.07c0,1.17.49,2.06,1.4,2.06s1.36-.84,1.36-2.07c0-1-.39-2.05-1.36-2.05S50.75,17.34,50.75,18.36Z"/><path class="cls-11" d="M57.3,17.12c0-.86,0-1.58-.06-2.19h1.85l.1,1h0a2.5,2.5,0,0,1,2.12-1.11c1.4,0,2.46.94,2.46,3v4.05H61.67V18c0-.88-.31-1.48-1.08-1.48a1.14,1.14,0,0,0-1.08.8,1.41,1.41,0,0,0-.08.53v4H57.3Z"/><path class="cls-11" d="M68.08,13v2h1.53V16.5H68.08V19c0,.83.2,1.21.84,1.21a3.18,3.18,0,0,0,.63-.06l0,1.62a4.55,4.55,0,0,1-1.38.18,2.25,2.25,0,0,1-1.61-.59,2.81,2.81,0,0,1-.59-2V16.5h-.91V14.93H66V13.45Z"/><path class="cls-11" d="M77.81,18.29a3.44,3.44,0,0,1-3.62,3.65,3.36,3.36,0,0,1-3.54-3.53,3.43,3.43,0,0,1,3.67-3.64A3.34,3.34,0,0,1,77.81,18.29Zm-5,.07c0,1.17.5,2.06,1.4,2.06s1.36-.84,1.36-2.07c0-1-.39-2.05-1.35-2.05S72.85,17.34,72.85,18.36Z"/><path class="cls-11" d="M81.52,12.19A18.36,18.36,0,0,1,79.84,16l-1.29.12a23.21,23.21,0,0,0,1-3.79Z"/><path class="cls-11" d="M81.65,19.93a4.15,4.15,0,0,0,1.83.51c.64,0,.92-.22.92-.57s-.22-.53-1-.79c-1.43-.47-2-1.25-2-2,0-1.29,1.08-2.26,2.78-2.26a4.56,4.56,0,0,1,1.93.4l-.37,1.47a3.5,3.5,0,0,0-1.48-.39c-.52,0-.82.21-.82.56s.27.5,1.11.79c1.3.44,1.85,1.11,1.86,2.11,0,1.28-1,2.22-3,2.22a4.94,4.94,0,0,1-2.22-.48Z"/><path class="cls-11" d="M93.33,12.34v9.44H91.2V12.34Z"/><path class="cls-11" d="M95.43,17.12c0-.86,0-1.58-.05-2.19h1.85l.1,1h0a2.49,2.49,0,0,1,2.12-1.11c1.4,0,2.45.94,2.45,3v4.05H99.81V18c0-.88-.32-1.48-1.09-1.48a1.16,1.16,0,0,0-1.08.8,1.66,1.66,0,0,0-.07.53v4H95.43Z"/><path class="cls-11" d="M110.56,11.84v7.9c0,.77,0,1.58,0,2h-1.89l-.09-1h0a2.39,2.39,0,0,1-2.15,1.16c-1.61,0-2.92-1.39-2.92-3.52,0-2.3,1.43-3.65,3.06-3.65a2.08,2.08,0,0,1,1.81.78h0V11.84Zm-2.13,6a2.56,2.56,0,0,0,0-.39,1.27,1.27,0,0,0-1.24-1c-1,0-1.47.87-1.47,1.95s.57,1.88,1.46,1.88a1.26,1.26,0,0,0,1.23-1,1.86,1.86,0,0,0,.05-.48Z"/><path class="cls-11" d="M114.74,13a1.06,1.06,0,0,1-1.15,1.07A1.07,1.07,0,1,1,114.74,13Zm-2.2,8.76V14.93h2.14v6.85Z"/><path class="cls-11" d="M118.3,19c.06.89.94,1.31,1.93,1.31a5.86,5.86,0,0,0,1.89-.29l.29,1.44a6.67,6.67,0,0,1-2.49.43c-2.32,0-3.65-1.35-3.65-3.49a3.44,3.44,0,0,1,3.45-3.67c2.22,0,3.06,1.73,3.06,3.43a4.84,4.84,0,0,1-.07.84Zm2.5-1.46a1.23,1.23,0,0,0-1.19-1.39,1.42,1.42,0,0,0-1.33,1.39Z"/><path class="cls-11" d="M32.8,64.37a4.33,4.33,0,0,1-1.81.34,3.11,3.11,0,0,1-3.19-3.44,3.29,3.29,0,0,1,3.41-3.51,3.44,3.44,0,0,1,1.57.3l-.16.4a3.21,3.21,0,0,0-1.4-.29,2.79,2.79,0,0,0-2.93,3.11,2.72,2.72,0,0,0,2.85,3A3.42,3.42,0,0,0,32.66,64Z"/><path class="cls-11" d="M33.94,62.16c0,1.53.84,2.14,1.83,2.14A2.79,2.79,0,0,0,37.1,64l.12.37a3.17,3.17,0,0,1-1.51.31,2.21,2.21,0,0,1-2.24-2.41c0-1.6.92-2.6,2.16-2.6a2,2,0,0,1,1.87,2.16,1.28,1.28,0,0,1,0,.3ZM37,61.78a1.48,1.48,0,0,0-1.43-1.69A1.71,1.71,0,0,0,34,61.78Z"/><path class="cls-11" d="M38.72,57.51h.48V64.6h-.48Z"/><path class="cls-11" d="M40.91,62.16c0,1.53.84,2.14,1.83,2.14A2.79,2.79,0,0,0,44.07,64l.12.37a3.17,3.17,0,0,1-1.51.31,2.21,2.21,0,0,1-2.24-2.41c0-1.6.92-2.6,2.16-2.6a2,2,0,0,1,1.87,2.16,1.28,1.28,0,0,1,0,.3ZM44,61.78a1.48,1.48,0,0,0-1.43-1.69,1.71,1.71,0,0,0-1.6,1.69Z"/><path class="cls-11" d="M45.65,64.6c0-.34,0-.76,0-1.11v-6h.47V60.7h0a1.85,1.85,0,0,1,1.76-1A2.18,2.18,0,0,1,50,62.15a2.27,2.27,0,0,1-2.14,2.56,1.81,1.81,0,0,1-1.71-1h0l0,.86Zm.51-1.85a1.34,1.34,0,0,0,.05.35,1.6,1.6,0,0,0,1.57,1.22c1.1,0,1.73-.9,1.73-2.15s-.6-2.08-1.69-2.08a1.74,1.74,0,0,0-1.66,1.7Z"/><path class="cls-11" d="M51.21,61.24c0-.48,0-1,0-1.44h.44l0,1h0A1.47,1.47,0,0,1,53,59.7a.62.62,0,0,1,.19,0v.45H53c-.66,0-1.13.57-1.26,1.34a3.27,3.27,0,0,0,0,.45V64.6h-.47Z"/><path class="cls-11" d="M56.76,64.6l-.07-.68h0a1.81,1.81,0,0,1-1.52.79,1.31,1.31,0,0,1-1.42-1.32c0-1.1,1-1.77,2.93-1.75v-.13c0-.47-.09-1.42-1.23-1.41a2.11,2.11,0,0,0-1.2.35l-.15-.34a2.54,2.54,0,0,1,1.4-.41c1.39,0,1.65,1,1.65,1.89v1.87a8.51,8.51,0,0,0,.07,1.14ZM56.65,62c-1,0-2.43.13-2.43,1.28a.92.92,0,0,0,1,1,1.46,1.46,0,0,0,1.42-1,1.18,1.18,0,0,0,0-.29Z"/><path class="cls-11" d="M59.32,58.42V59.8h1.37v.39H59.32v3.12c0,.61.19,1,.7,1a1.48,1.48,0,0,0,.55-.08l.06.37a1.67,1.67,0,0,1-.67.12,1,1,0,0,1-.82-.34,1.77,1.77,0,0,1-.3-1.15v-3H58V59.8h.8V58.57Z"/><path class="cls-11" d="M62.37,58.43a.39.39,0,1,1-.77,0A.4.4,0,0,1,62,58,.39.39,0,0,1,62.37,58.43Zm-.62,6.17V59.8h.47v4.8Z"/><path class="cls-11" d="M63.84,61c0-.44,0-.77,0-1.15h.44l0,.87h0a1.79,1.79,0,0,1,1.65-1c.46,0,1.67.23,1.67,2V64.6h-.47V61.77c0-.88-.34-1.67-1.33-1.67a1.53,1.53,0,0,0-1.44,1.11,1.32,1.32,0,0,0-.07.42v3h-.47Z"/><path class="cls-11" d="M73.06,59.8c0,.36,0,.74,0,1.24V63.9a2.84,2.84,0,0,1-.65,2.22,2.39,2.39,0,0,1-1.63.57,2.71,2.71,0,0,1-1.52-.41l.17-.38a2.6,2.6,0,0,0,1.42.4c1,0,1.74-.53,1.74-2v-.67h0a1.81,1.81,0,0,1-1.67.92,2.17,2.17,0,0,1-2.06-2.35A2.3,2.3,0,0,1,71,59.7a1.7,1.7,0,0,1,1.62.91h0l0-.81Zm-.51,1.85a1.65,1.65,0,0,0-.06-.46A1.56,1.56,0,0,0,71,60.09c-1,0-1.72.83-1.72,2.1,0,1.08.57,2,1.7,2a1.57,1.57,0,0,0,1.48-1.09,1.48,1.48,0,0,0,.09-.51Z"/><path class="cls-11" d="M76.48,64.6v-.3l.6-.61c1.81-1.77,2.6-2.69,2.6-3.8a1.3,1.3,0,0,0-1.41-1.47,2.15,2.15,0,0,0-1.38.56l-.19-.33A2.46,2.46,0,0,1,78.36,58a1.71,1.71,0,0,1,1.81,1.79c0,1.28-.93,2.3-2.56,3.91l-.46.48v0h3.19v.4Z"/><path class="cls-11" d="M85.39,61.26c0,2.33-.83,3.45-2.13,3.45-1,0-2-1-2-3.33s1-3.38,2.13-3.38S85.39,59,85.39,61.26Zm-3.62.13c0,1.82.62,2.93,1.56,2.93s1.57-1.24,1.57-3-.46-2.93-1.56-2.93C82.45,58.39,81.77,59.48,81.77,61.39Z"/><path class="cls-11" d="M89.77,64.6V61.69l-2.14-3.82h.53l1.11,2c.28.53.53,1,.76,1.46h0c.21-.46.48-.93.78-1.46l1.15-2h.53L90.24,61.7v2.9Z"/><path class="cls-11" d="M92.83,62.16c0,1.53.84,2.14,1.83,2.14A2.79,2.79,0,0,0,96,64l.12.37a3.17,3.17,0,0,1-1.51.31,2.21,2.21,0,0,1-2.24-2.41c0-1.6.92-2.6,2.16-2.6a2,2,0,0,1,1.87,2.16,1.28,1.28,0,0,1,0,.3Zm3.06-.38a1.48,1.48,0,0,0-1.43-1.69,1.71,1.71,0,0,0-1.6,1.69Z"/><path class="cls-11" d="M100.23,64.6l-.07-.68h0a1.82,1.82,0,0,1-1.53.79,1.31,1.31,0,0,1-1.41-1.32c0-1.1,1-1.77,2.93-1.75v-.13c0-.47-.09-1.42-1.23-1.41a2.11,2.11,0,0,0-1.2.35l-.15-.34a2.51,2.51,0,0,1,1.4-.41c1.39,0,1.65,1,1.65,1.89v1.87a8.51,8.51,0,0,0,.07,1.14ZM100.12,62c-1.05,0-2.43.13-2.43,1.28a.92.92,0,0,0,1,1,1.46,1.46,0,0,0,1.42-1,1.18,1.18,0,0,0,.05-.29Z"/><path class="cls-11" d="M102.15,61.24c0-.48,0-1,0-1.44h.44l0,1h0A1.48,1.48,0,0,1,104,59.7a.62.62,0,0,1,.19,0v.45h-.23c-.66,0-1.13.57-1.26,1.34a3.27,3.27,0,0,0,0,.45V64.6h-.47Z"/><path class="cls-11" d="M104.9,64a2,2,0,0,0,1.08.33c.76,0,1.12-.41,1.12-.91s-.32-.81-1-1.08-1.22-.73-1.22-1.32a1.34,1.34,0,0,1,1.48-1.29,1.9,1.9,0,0,1,1.06.3l-.19.39a1.56,1.56,0,0,0-1-.29.84.84,0,0,0-.93.83c0,.5.34.71,1,1s1.24.69,1.24,1.42A1.43,1.43,0,0,1,106,64.71a2.33,2.33,0,0,1-1.22-.34Z"/><path class="cls-11" d="M29.48,78.11,28.9,80H27.63l2.16-6.73h1.57L33.55,80H32.23l-.61-1.9Zm1.94-.93-.53-1.66c-.13-.42-.25-.88-.35-1.27h0c-.1.4-.2.86-.32,1.26l-.52,1.67Z"/><path class="cls-11" d="M38.66,78.55c0,.58,0,1.07,0,1.46H37.62l0-.73h0a1.78,1.78,0,0,1-1.56.84c-.89,0-1.7-.53-1.7-2.12V75.15h1.23v2.64c0,.81.26,1.33.91,1.33a1,1,0,0,0,.94-.66,1.07,1.07,0,0,0,.07-.38V75.15h1.23Z"/><path class="cls-11" d="M44.44,75.15c0,.32,0,.73,0,1.39V79.3a2.35,2.35,0,0,1-2.6,2.8,3.49,3.49,0,0,1-1.69-.38l.26-.94a2.94,2.94,0,0,0,1.42.37,1.29,1.29,0,0,0,1.4-1.47v-.41h0a1.65,1.65,0,0,1-1.42.71,2.16,2.16,0,0,1-2.06-2.37A2.32,2.32,0,0,1,41.89,75a1.52,1.52,0,0,1,1.41.75h0l0-.64ZM43.17,77.1a1.11,1.11,0,0,0,0-.33,1,1,0,0,0-1-.79c-.68,0-1.2.59-1.2,1.59,0,.82.42,1.49,1.19,1.49a1,1,0,0,0,1-.74,1.58,1.58,0,0,0,.05-.43Z"/><path class="cls-11" d="M50.08,78.55c0,.58,0,1.07,0,1.46H49l0-.73h0a1.78,1.78,0,0,1-1.56.84c-.89,0-1.7-.53-1.7-2.12V75.15h1.23v2.64c0,.81.26,1.33.91,1.33a1,1,0,0,0,.94-.66,1.07,1.07,0,0,0,.07-.38V75.15h1.23Z"/><path class="cls-11" d="M51.36,78.88a2.67,2.67,0,0,0,1.24.36c.54,0,.78-.23.78-.55s-.2-.5-.8-.71c-.95-.33-1.35-.84-1.34-1.42,0-.86.71-1.52,1.84-1.52a2.81,2.81,0,0,1,1.3.29l-.25.86a2.15,2.15,0,0,0-1-.28c-.44,0-.68.22-.68.52s.24.45.85.68c.89.31,1.29.76,1.3,1.48,0,.89-.69,1.53-2,1.53a3.14,3.14,0,0,1-1.48-.34Z"/><path class="cls-11" d="M57,73.75v1.4h1.17v.91H57v2.15c0,.59.16.9.63.9a1.82,1.82,0,0,0,.48-.06l0,.94a2.77,2.77,0,0,1-.9.13,1.46,1.46,0,0,1-1.06-.4,2,2,0,0,1-.38-1.37V76.06h-.7v-.91h.7V74Z"/><path class="cls-11" d="M65.06,74.53H62.57l-.19,1.3.46,0a2.89,2.89,0,0,1,1.58.41,1.88,1.88,0,0,1,.85,1.65,2.37,2.37,0,0,1-2.62,2.25,3.75,3.75,0,0,1-1.73-.38l.25-.93a3.29,3.29,0,0,0,1.43.34A1.27,1.27,0,0,0,64,78c0-.74-.55-1.24-1.84-1.24a6.92,6.92,0,0,0-.89.06l.42-3.28h3.36Z"/><path class="cls-11" d="M68.71,76.93v.84H66.16v-.84Z"/><path class="cls-11" d="M71.37,74.63h0l-1.19.59L70,74.3l1.59-.79h1V80H71.37Z"/><path class="cls-11" d="M78.93,74.53h-2.5l-.18,1.3.46,0a2.89,2.89,0,0,1,1.58.41,1.88,1.88,0,0,1,.85,1.65,2.38,2.38,0,0,1-2.63,2.25,3.74,3.74,0,0,1-1.72-.38l.25-.93a3.29,3.29,0,0,0,1.43.34A1.27,1.27,0,0,0,77.88,78c0-.74-.55-1.24-1.85-1.24a6.88,6.88,0,0,0-.88.06l.42-3.28h3.36Z"/><path class="cls-11" d="M79.81,81.22a15.25,15.25,0,0,0,.68-2.64l1.29-.1a13,13,0,0,1-1.13,2.66Z"/><path class="cls-11" d="M84.59,80v-.75l.78-.71c1.52-1.42,2.24-2.19,2.25-3a1,1,0,0,0-1.16-1.1,2.43,2.43,0,0,0-1.39.54l-.36-.87a3.28,3.28,0,0,1,2-.66,1.92,1.92,0,0,1,2.14,2c0,1.15-.82,2.06-1.95,3.11l-.56.5v0H89v1Z"/><path class="cls-11" d="M94.54,76.72c0,2.09-.82,3.4-2.37,3.4s-2.29-1.36-2.31-3.34.86-3.37,2.38-3.37S94.54,74.81,94.54,76.72Zm-3.44.06c0,1.58.43,2.4,1.11,2.4s1.1-.88,1.1-2.43-.36-2.4-1.1-2.4S91.1,75.16,91.1,76.78Z"/><path class="cls-11" d="M97.24,74.63h0L96,75.22l-.21-.92,1.58-.79h1V80H97.24Z"/><path class="cls-11" d="M105.26,76.72c0,2.09-.82,3.4-2.37,3.4s-2.3-1.36-2.31-3.34.86-3.37,2.38-3.37S105.26,74.81,105.26,76.72Zm-3.44.06c0,1.58.43,2.4,1.11,2.4s1.1-.88,1.1-2.43-.36-2.4-1.1-2.4S101.82,75.16,101.82,76.78Z"/><path class="cls-11" d="M28,94a2.4,2.4,0,0,0,1.32.4,1.29,1.29,0,0,0,1.47-1.26c0-.68-.36-1.08-1.23-1.42S28,90.83,28,90a1.61,1.61,0,0,1,1.77-1.54,2.32,2.32,0,0,1,1.21.28l-.17.36a2,2,0,0,0-1.07-.28c-1,0-1.31.62-1.31,1.1,0,.67.39,1,1.25,1.36s1.54.86,1.54,1.77a1.7,1.7,0,0,1-1.93,1.67,2.79,2.79,0,0,1-1.45-.41Z"/><path class="cls-11" d="M35.65,93.57c0,.39,0,.73,0,1.06h-.4l0-.77h0a1.67,1.67,0,0,1-1.48.87c-.55,0-1.47-.27-1.47-1.9V90.31h.43v2.43c0,.94.29,1.62,1.15,1.62a1.43,1.43,0,0,0,1.27-.88,1.71,1.71,0,0,0,.09-.48V90.31h.42Z"/><path class="cls-11" d="M37.11,91.34c0-.39,0-.69,0-1h.4l0,.76h0a1.51,1.51,0,0,1,1.4-.86,1.31,1.31,0,0,1,1.24,1h0a1.75,1.75,0,0,1,.44-.59,1.48,1.48,0,0,1,1-.36c.42,0,1.41.24,1.41,1.88v2.54h-.43v-2.5c0-1-.37-1.55-1.12-1.55a1.27,1.27,0,0,0-1.14.85,1.43,1.43,0,0,0-.07.43v2.77h-.43v-2.7c0-.78-.37-1.35-1.07-1.35a1.34,1.34,0,0,0-1.2,1,1.37,1.37,0,0,0-.07.42v2.66h-.42Z"/><path class="cls-11" d="M44.48,91.34c0-.39,0-.69,0-1h.4l0,.76h0a1.52,1.52,0,0,1,1.4-.86,1.31,1.31,0,0,1,1.24,1h0a1.75,1.75,0,0,1,.44-.59,1.48,1.48,0,0,1,1-.36c.42,0,1.41.24,1.41,1.88v2.54H50v-2.5c0-1-.37-1.55-1.12-1.55a1.27,1.27,0,0,0-1.14.85,1.43,1.43,0,0,0-.07.43v2.77h-.43v-2.7c0-.78-.37-1.35-1.07-1.35a1.34,1.34,0,0,0-1.2,1,1.37,1.37,0,0,0-.07.42v2.66h-.42Z"/><path class="cls-11" d="M51.91,92.43c0,1.38.75,1.93,1.65,1.93a2.49,2.49,0,0,0,1.2-.25l.11.34a2.92,2.92,0,0,1-1.37.28,2,2,0,0,1-2-2.17c0-1.45.83-2.35,1.94-2.35a1.76,1.76,0,0,1,1.69,2,1,1,0,0,1,0,.27Zm2.76-.34a1.32,1.32,0,0,0-1.29-1.52,1.55,1.55,0,0,0-1.45,1.52Z"/><path class="cls-11" d="M56.21,91.61c0-.44,0-.88,0-1.3h.4l0,.88h0a1.34,1.34,0,0,1,1.23-1l.17,0v.41h-.2c-.59,0-1,.51-1.14,1.21a2.6,2.6,0,0,0,0,.4v2.39h-.43Z"/><path class="cls-11" d="M59.05,90.31l.73,2.46c.15.5.27.94.37,1.35h0c.11-.4.26-.85.43-1.35l.87-2.46h.41l.82,2.44c.18.52.31,1,.42,1.37h0c.09-.4.22-.84.39-1.36l.77-2.45h.44L63.3,94.63h-.37l-.81-2.41a11.64,11.64,0,0,1-.45-1.47h0c-.13.51-.29,1-.47,1.49l-.86,2.39h-.38l-1.33-4.32Z"/><path class="cls-11" d="M69.26,92.43a2.09,2.09,0,0,1-2.07,2.3,2,2,0,0,1-2-2.23,2.09,2.09,0,0,1,2.05-2.29A2,2,0,0,1,69.26,92.43Zm-3.61,0a1.72,1.72,0,0,0,1.57,1.89,1.75,1.75,0,0,0,1.61-1.92,1.61,1.61,0,1,0-3.18,0Z"/><path class="cls-11" d="M70.36,91.61c0-.44,0-.88,0-1.3h.4l0,.88h0a1.34,1.34,0,0,1,1.23-1l.17,0v.41H72c-.6,0-1,.51-1.14,1.21a2.6,2.6,0,0,0,0,.4v2.39h-.43Z"/><path class="cls-11" d="M73.51,92.39h0l.42-.48,1.52-1.6H76L74.25,92.1l2,2.53h-.52L74,92.36l-.44.47v1.8h-.43V88.24h.43Z"/><path class="cls-11" d="M76.72,94.06a1.83,1.83,0,0,0,1,.3c.68,0,1-.37,1-.82s-.28-.73-.91-1-1.09-.65-1.09-1.18A1.21,1.21,0,0,1,78,90.21a1.68,1.68,0,0,1,1,.28l-.18.34a1.43,1.43,0,0,0-.85-.26.76.76,0,0,0-.84.75c0,.45.3.64.89.89s1.12.62,1.12,1.28a1.29,1.29,0,0,1-1.46,1.24,2.12,2.12,0,0,1-1.1-.3Z"/><path class="cls-11" d="M79.91,94.33a.37.37,0,0,1,.37-.41.37.37,0,0,1,.36.41.37.37,0,0,1-.37.4A.36.36,0,0,1,79.91,94.33Z"/><path class="cls-11" d="M84.7,94.44a2.78,2.78,0,0,1-1.27.29,2,2,0,0,1-2.07-2.21,2.28,2.28,0,0,1,3.36-2l-.15.35a2,2,0,0,0-1-.25,1.75,1.75,0,0,0-1.76,1.91,1.71,1.71,0,0,0,1.71,1.87,2.51,2.51,0,0,0,1.08-.25Z"/><path class="cls-11" d="M88.08,94.63,88,94h0a1.66,1.66,0,0,1-1.38.72,1.18,1.18,0,0,1-1.27-1.19c0-1,.87-1.6,2.63-1.58v-.11c0-.43-.08-1.28-1.1-1.28a1.91,1.91,0,0,0-1.09.32l-.13-.31a2.35,2.35,0,0,1,1.26-.37c1.25,0,1.49.94,1.49,1.71V93.6a7,7,0,0,0,.06,1ZM88,92.32c-.94,0-2.18.12-2.18,1.15a.82.82,0,0,0,.86.9,1.3,1.3,0,0,0,1.28-.86.87.87,0,0,0,0-.26Z"/></g></g></svg>