<svg xmlns="http://www.w3.org/2000/svg" viewBox="0 0 751 1332"><defs><style>.cls-1{fill:#f7e826;}.cls-2{fill:#130d0f;}.cls-3{fill:#29a9e1;}.cls-4{fill:#fff;}.cls-5{fill:#191910;}</style></defs><title>Kunstwerk - Mobile met achtergrond</title><g id="driehoek_geel_boven" data-name="driehoek geel boven"><polygon class="cls-1" points="1 257.96 751 257.96 376 432.94 1 257.96"/></g><g id="Driehoek_geel_midden" data-name="Driehoek geel midden"><polygon class="cls-1" points="379.85 485.55 746.11 658.45 379.85 839.69 4.85 662.62 379.85 485.55"/></g><g id="Driehoek_geel_onder" data-name="Driehoek geel onder"><polygon class="cls-1" points="376 889.16 751 1065.22 1 1065.22 376 889.16"/></g><g id="Driehoek_zwart_links" data-name="Driehoek zwart links"><polygon class="cls-2" points="4.85 312.7 321.46 460.6 4.85 610.59 4.85 312.7"/></g><g id="Driehoek_zwart_rechts" data-name="Driehoek zwart rechts"><polygon class="cls-2" points="746.11 716.84 425.22 862.66 746.11 1014.73 746.11 716.84"/></g><g id="Driehoek_blauw_links" data-name="Driehoek blauw links"><polygon class="cls-3" points="1 716.84 1 1014.73 319.69 865.79 1 716.84"/></g><g id="Driehoek_blauw_rechts" data-name="Driehoek blauw rechts"><polygon class="cls-3" points="745.07 312.7 426.26 461.65 745.07 610.59 745.07 312.7"/></g><g id="Blauwe_cirkel" data-name="Blauwe cirkel"><circle class="cls-3" cx="376" cy="338.23" r="50.53"/></g><g id="Witte_cirkel" data-name="Witte cirkel"><circle class="cls-4" cx="376" cy="988.69" r="50.53"/></g><g id="Baluwe_maan" data-name="Baluwe maan"><path class="cls-3" d="M67.38,405.75S111.13,387,136.82,428c0,0,18.75,26.27,3.47,57.57,0,0-7.64,24.37-46.52,31.31,0,0-16.67,1.39-26.39-2.78,0,0,25.69-10.41,36.11-36.11C103.49,478,119.46,427.27,67.38,405.75Z"/></g><g id="Gele_zon" data-name="Gele zon"><polygon class="cls-1" points="630.8 401.46 642.61 418.25 655.8 401.46 658.92 421.37 677.33 411.42 673.85 431.44 693.99 429.7 682.19 446.72 700.59 452.62 684.27 464.08 698.85 477.96 678.37 479.35 686.01 496.71 667.95 492.55 667.26 512.68 652.33 498.8 644 517.07 634.62 499.84 619.34 512.68 619.34 492.2 599.21 498.8 607.54 478.66 585.66 477.96 603.02 464.08 585.66 453.31 603.72 447.06 592.26 430.05 613.09 431.44 608.93 412.34 626.98 422.76 630.8 401.46"/></g><g id="Zwarte_zon" data-name="Zwarte zon"><polygon class="cls-5" points="369.23 553.83 377.1 588.72 384.85 553.83 387.98 588.72 399.96 557.47 399.96 590.8 416.62 563.2 411.41 595.49 431.2 570.49 420.79 599.66 445.27 579.87 429.64 607.47 455.68 591.85 438.5 614.76 465.06 605.39 443.7 625.7 472.87 619.97 448.39 636.63 478.08 636.63 451 648.09 480.16 651.22 451.52 660.59 480.16 668.4 451 671.01 477.56 683.51 447.87 683.51 472.35 698.61 442.66 694.96 464.54 713.71 437.98 704.86 457.25 728.29 430.16 713.19 444.23 738.71 421.31 721.52 430.68 748.61 409.85 726.73 416.62 754.34 400.48 732.46 400.48 762.15 387.98 734.02 385.89 765.79 377.1 735.07 369.23 765.79 364.02 733.5 353.08 763.19 353.08 731.42 337.46 758.5 341.63 726.73 322.36 749.13 332.25 721.52 309.34 740.27 323.92 713.19 298.4 727.77 316.63 703.82 288.51 714.75 310.38 694.96 279.65 700.69 305.69 684.03 276.01 685.07 301.53 672.05 271.84 669.45 302.57 659.81 271.84 652.78 302.57 649.13 276.01 636.63 304.65 637.15 279.65 619.97 308.82 626.22 284.86 604.35 316.11 616.32 295.28 590.28 324.96 609.55 308.3 579.87 332.77 600.18 321.84 568.93 342.67 593.93 335.9 561.12 353.61 588.72 351.52 556.43 365.58 589.24 369.23 553.83"/></g><g id="Witte_wolk_bol_1" data-name="Witte wolk bol 1"><circle class="cls-4" cx="106.83" cy="848.77" r="34.72"/></g><g id="Witte_wolk_bolk_2" data-name="Witte wolk bolk 2"><circle class="cls-4" cx="142.87" cy="868.27" r="31.92"/></g><g id="Witte_wolk_bol_3" data-name="Witte wolk bol 3"><circle class="cls-4" cx="109.63" cy="886.12" r="19.16"/></g><g id="Witte_wolk_bol_4" data-name="Witte wolk bol 4"><circle class="cls-4" cx="70.8" cy="868.27" r="36.72"/></g><g id="Gele_ster" data-name="Gele ster"><polygon class="cls-1" points="643.47 798.78 628.89 843.22 580.98 843.22 619.17 870.99 605.98 914.74 643.47 889.16 682.36 914.74 667.08 870.99 705.27 842.52 658.06 842.52 643.47 798.78"/></g><g id="achtergrond"><rect class="cls-1" x="271" y="-271" width="208" height="750" transform="translate(479 -271) rotate(90)"/><rect class="cls-1" x="272" y="853" width="208" height="750" transform="translate(1604 852) rotate(90)"/></g></svg>