<svg id="kunstwerk" xmlns="http://www.w3.org/2000/svg" viewBox="0 0 750.23 807.27"><defs><style>.cls-1{fill:#fff;}.cls-2{fill:#130d0f;}.cls-3{fill:#29a9e1;}.cls-4{fill:#f7e826;}.cls-5{fill:#191910;}</style></defs><title>Kunstwerk - nieuwe versie</title><g id="witte_balken" data-name="witte balken"><g id="Witte_balken-2" data-name="Witte balken"><path class="cls-1" d="M375.07,175,.18,0H.07V807H.55L375.07,631.2,749.61,807h.46V0H750Zm3.86,406.75L3.92,404.66l375-177.08L745.18,400.49Z"/><polygon class="cls-1" points="750.08 0 0.07 0 0.17 0.04 749.99 0.04 750.08 0"/><polygon class="cls-1" points="0.07 807.27 750.08 807.27 749.61 807.04 0.56 807.04 0.07 807.27"/></g></g><g id="zwarte_driehoek" data-name="zwarte driehoek"><g id="Driehoek_zwart_links" data-name="Driehoek zwart links"><polygon class="cls-2" points="0 54.74 316.61 202.65 0 352.64 0 54.74"/></g></g><g id="zwarte_driehoek_2" data-name="zwarte driehoek 2"><g id="Driehoek_zwart_rechts" data-name="Driehoek zwart rechts"><polygon class="cls-2" points="750.15 460.88 429.26 606.71 750.15 758.78 750.15 460.88"/></g></g><g id="blauwe_driehoek_2" data-name="blauwe driehoek 2"><g id="Driehoek_blauw_links" data-name="Driehoek blauw links"><polygon class="cls-3" points="0.15 458.88 0.15 756.78 318.85 607.83 0.15 458.88"/></g></g><g id="blauwe_driehoek" data-name="blauwe driehoek"><g id="Driehoek_blauw_rechts" data-name="Driehoek blauw rechts"><polygon class="cls-3" points="750.23 54.74 431.41 203.69 750.23 352.64 750.23 54.74"/></g></g><g id="blauwe_cirkel" data-name="blauwe cirkel"><g id="Blauwe_cirkel-2" data-name="Blauwe cirkel"><circle class="cls-3" cx="375.15" cy="80.28" r="50.53"/></g></g><g id="witte_cirkel" data-name="witte cirkel"><g id="Witte_cirkel-2" data-name="Witte cirkel"><circle class="cls-1" cx="375.15" cy="730.74" r="50.53"/></g></g><g id="blauwe_maan" data-name="blauwe maan"><g id="Baluwe_maan" data-name="Baluwe maan"><path class="cls-3" d="M66.53,147.79S110.28,129,136,170c0,0,18.75,26.27,3.47,57.57,0,0-7.64,24.37-46.52,31.31,0,0-16.67,1.39-26.39-2.78,0,0,25.69-10.41,36.11-36.11C102.64,220,118.61,169.31,66.53,147.79Z"/></g></g><g id="gele_zon" data-name="gele zon"><g id="Gele_zon-2" data-name="Gele zon"><polygon class="cls-4" points="629.96 143.51 641.76 160.29 654.95 143.51 658.08 163.41 676.48 153.46 673.01 173.48 693.15 171.75 681.34 188.76 699.74 194.66 683.42 206.12 698.01 220.01 677.52 221.4 685.16 238.76 667.11 234.59 666.41 254.73 651.48 240.84 643.15 259.12 633.77 241.88 618.5 254.73 618.5 234.24 598.36 240.84 606.69 220.7 584.82 220.01 602.18 206.12 584.82 195.36 602.87 189.11 591.42 172.09 612.25 173.48 608.08 154.39 626.14 164.8 629.96 143.51"/></g></g><g id="zwarte_zon" data-name="zwarte zon"><g id="Zwarte_zon-2" data-name="Zwarte zon"><polygon class="cls-5" points="368.38 295.87 376.25 330.76 384.01 295.87 387.13 330.76 399.11 299.52 399.11 332.85 415.78 305.25 410.57 337.54 430.36 312.54 419.94 341.7 444.42 321.91 428.8 349.51 454.84 333.89 437.65 356.81 464.21 347.43 442.86 367.74 472.02 362.01 447.55 378.68 477.23 378.68 450.15 390.14 479.31 393.26 450.67 402.64 479.31 410.45 450.15 413.05 476.71 425.55 447.02 425.55 471.5 440.65 441.82 437.01 463.69 455.76 437.13 446.9 456.4 470.34 429.32 455.24 443.38 480.75 420.46 463.57 429.84 490.65 409.01 468.78 415.78 496.38 399.63 474.51 399.63 504.19 387.13 476.07 385.05 507.84 376.25 477.11 368.38 507.84 363.18 475.55 352.24 505.23 352.24 473.46 336.62 500.55 340.78 468.78 321.51 491.17 331.41 463.57 308.49 482.32 323.07 455.24 297.56 469.82 315.78 445.86 287.66 456.8 309.53 437.01 278.81 442.74 304.85 426.07 275.16 427.11 300.68 414.09 271 411.49 301.72 401.85 271 394.82 301.72 391.18 275.16 378.68 303.81 379.2 278.81 362.01 307.97 368.26 284.01 346.39 315.26 358.37 294.43 332.33 324.12 351.6 307.45 321.91 331.93 342.22 320.99 310.98 341.82 335.97 335.05 303.16 352.76 330.76 350.68 298.48 364.74 331.29 368.38 295.87"/></g></g><g id="wolk_bol_4" data-name="wolk bol 4"><g id="Witte_wolk_bol_1" data-name="Witte wolk bol 1"><circle class="cls-1" cx="105.99" cy="590.82" r="34.72" transform="translate(-487.41 681.24) rotate(-88.49)"/></g></g><g id="wolk_bol_3" data-name="wolk bol 3"><g id="Witte_wolk_bolk_2" data-name="Witte wolk bolk 2"><circle class="cls-1" cx="142.02" cy="610.31" r="31.92"/></g></g><g id="wolk_bol_2" data-name="wolk bol 2"><g id="Witte_wolk_bol_3" data-name="Witte wolk bol 3"><circle class="cls-1" cx="108.79" cy="628.16" r="19.16"/></g></g><g id="wolk_bol_1" data-name="wolk bol 1"><g id="Witte_wolk_bol_4" data-name="Witte wolk bol 4"><circle class="cls-1" cx="69.95" cy="610.31" r="36.72"/></g></g><g id="gele_ster" data-name="gele ster"><g id="Gele_ster-2" data-name="Gele ster"><polygon class="cls-4" points="642.63 540.82 628.05 585.26 580.13 585.26 618.32 613.04 605.13 656.78 642.63 631.21 681.51 656.78 666.24 613.04 704.43 584.57 657.21 584.57 642.63 540.82"/></g></g></svg>