<?xml version="1.0" encoding="utf-8"?>
<!-- Generator: Adobe Illustrator 23.1.0, SVG Export Plug-In . SVG Version: 6.00 Build 0)  -->
<svg version="1.1" xmlns="http://www.w3.org/2000/svg" xmlns:xlink="http://www.w3.org/1999/xlink" x="0px" y="0px"
	 viewBox="0 0 595.3 841.9" style="enable-background:new 0 0 595.3 841.9;" xml:space="preserve">
<style type="text/css">
	.st0{fill:#F8E926;}
	.st1{fill:#130D0F;}
	.st2{fill:#29AAE2;}
	.st3{fill:#FFFFFF;}
	.st4{fill:#191910;}
	.st5{fill:none;stroke:#130E0F;stroke-miterlimit:10;}
	.st6{fill:none;stroke:#FFFFFF;stroke-width:8;stroke-miterlimit:10;}
	.st7{fill:#130E0F;stroke:#FFFFFF;stroke-width:7;stroke-miterlimit:10;}
	.st8{fill:none;stroke:#D2D2D4;stroke-miterlimit:10;}
	.st9{fill:none;stroke:#D2D2D4;stroke-miterlimit:10;stroke-dasharray:1.0043,1.0043;}
</style>
<g id="kunstwerk">
</g>
<g id="driehoek_geel_boven">
	<polygon class="st0" points="12.8,229.3 582.5,229.3 297.6,362.2 	"/>
</g>
<g id="Driehoek_geel_midden">
	<polygon class="st0" points="300.6,402.2 578.8,533.5 300.6,671.2 15.7,536.7 	"/>
</g>
<g id="Driehoek_geel_onder">
	<polygon class="st0" points="297.6,708.8 582.5,842.5 12.8,842.5 	"/>
</g>
<g id="Driehoek_zwart_links">
	<polygon class="st1" points="15.7,270.9 256.2,383.2 15.7,497.1 	"/>
</g>
<g id="Driehoek_zwart_rechts">
	<polygon class="st1" points="578.8,577.9 335,688.6 578.8,804.1 	"/>
</g>
<g id="Driehoek_blauw_links">
	<polygon class="st2" points="12.8,577.9 12.8,804.1 254.9,691 	"/>
</g>
<g id="Driehoek_blauw_rechts">
	<polygon class="st2" points="578,270.9 335.8,384 578,497.1 	"/>
</g>
<g id="Blauwe_cirkel">
	<circle class="st2" cx="297.6" cy="290.3" r="38.4"/>
</g>
<g id="Witte_cirkel">
	<circle class="st3" cx="297.6" cy="784.4" r="38.4"/>
</g>
<g id="Baluwe_maan">
	<path class="st2" d="M63.2,341.5c0,0,33.2-14.2,52.7,16.9c0,0,14.2,20,2.6,43.7c0,0-5.8,18.5-35.3,23.8c0,0-12.7,1.1-20-2.1
		c0,0,19.5-7.9,27.4-27.4C90.6,396.4,102.8,357.9,63.2,341.5z"/>
</g>
<g id="Gele_zon">
	<polygon class="st0" points="491.2,338.3 500.2,351 510.2,338.3 512.6,353.4 526.5,345.9 523.9,361.1 539.2,359.7 530.2,372.7 
		544.2,377.1 531.8,385.9 542.9,396.4 527.3,397.5 533.1,410.6 519.4,407.5 518.9,422.8 507.5,412.2 501.2,426.1 494.1,413 
		482.5,422.8 482.5,407.2 467.2,412.2 473.5,396.9 456.9,396.4 470.1,385.9 456.9,377.7 470.6,372.9 461.9,360 477.7,361.1 
		474.6,346.6 488.3,354.5 	"/>
</g>
<g id="Zwarte_zon">
	<polygon class="st4" points="292.5,454 298.5,480.5 304.4,454 306.7,480.5 315.8,456.8 315.8,482.1 328.5,461.1 324.5,485.7 
		339.6,466.7 331.7,488.8 350.3,473.8 338.4,494.8 358.2,482.9 345.1,500.3 365.3,493.2 349.1,508.6 371.2,504.3 352.6,516.9 
		375.2,516.9 354.6,525.6 376.8,528 355,535.1 376.8,541.1 354.6,543 374.8,552.5 352.2,552.5 370.8,564 348.3,561.2 364.9,575.5 
		344.7,568.8 359.4,586.6 338.8,575.1 349.5,594.5 332.1,581.4 339.2,602 323.4,585.4 328.5,606.3 316.2,589.7 316.2,612.3 
		306.7,590.9 305.2,615 298.5,591.7 292.5,615 288.5,590.5 280.2,613.1 280.2,588.9 268.4,609.5 271.5,585.4 256.9,602.4 
		264.4,581.4 247,595.7 258.1,575.1 238.7,586.2 252.5,568 231.2,576.3 247.8,561.2 224.5,565.6 244.2,552.9 221.7,553.7 
		241.1,543.8 218.5,541.9 241.9,534.5 218.5,529.2 241.9,526.4 221.7,516.9 243.4,517.3 224.5,504.3 246.6,509 228.4,492.4 
		252.1,501.5 236.3,481.7 258.9,496.4 246.2,473.8 264.8,489.2 256.5,465.5 272.3,484.5 267.2,459.6 280.6,480.5 279,456 
		289.7,480.9 	"/>
</g>
<g id="Witte_wolk_bol_1">
	<circle class="st3" cx="93.2" cy="678.1" r="26.4"/>
</g>
<g id="Witte_wolk_bolk_2">
	<circle class="st3" cx="120.5" cy="692.9" r="24.2"/>
</g>
<g id="Witte_wolk_bol_3">
	<circle class="st3" cx="95.3" cy="706.4" r="14.6"/>
</g>
<g id="Witte_wolk_bol_4">
	<circle class="st3" cx="65.8" cy="692.9" r="27.9"/>
</g>
<g id="Gele_ster">
	<polygon class="st0" points="500.8,640.1 489.7,673.9 453.3,673.9 482.4,694.9 472.3,728.2 500.8,708.8 530.4,728.2 518.7,694.9 
		547.8,673.3 511.9,673.3 	"/>
</g>
<g id="Logo_zon">
	<g>
		<path class="st3" d="M539,60.4"/>
		<line class="st5" x1="552" y1="71.5" x2="539.7" y2="83.8"/>
		<line class="st5" x1="548.1" y1="64" x2="532.4" y2="79.6"/>
		<line class="st5" x1="542.5" y1="58" x2="527.7" y2="72.8"/>
		<line class="st5" x1="539" y1="51.7" x2="518.8" y2="71.9"/>
		<line class="st5" x1="532.4" y1="45.4" x2="513.8" y2="64"/>
		<line class="st5" x1="526.9" y1="38.3" x2="505.4" y2="62.8"/>
		<line class="st5" x1="520.7" y1="33.7" x2="500.9" y2="61.2"/>
		<line class="st5" x1="512.1" y1="31.5" x2="500.2" y2="51.7"/>
		<line class="st5" x1="504.5" y1="27.6" x2="493.5" y2="51.3"/>
		<line class="st5" x1="496.6" y1="23.6" x2="487.9" y2="51.3"/>
		<line class="st5" x1="487.9" y1="23.6" x2="482" y2="54.7"/>
		<line class="st5" x1="480.4" y1="20" x2="476.5" y2="54.7"/>
		<line class="st5" x1="472.5" y1="20" x2="470.9" y2="60.4"/>
		<line class="st5" x1="465" y1="20" x2="466.6" y2="60.4"/>
		<line class="st5" x1="456.3" y1="20" x2="462.2" y2="60.4"/>
		<line class="st5" x1="448" y1="23.6" x2="459.2" y2="71.9"/>
		<line class="st5" x1="440.1" y1="25.6" x2="457.9" y2="77.6"/>
		<line class="st5" x1="432.5" y1="27.6" x2="453.6" y2="77.6"/>
		<line class="st5" x1="424.6" y1="31.5" x2="448" y2="72.8"/>
		<line class="st5" x1="417.9" y1="37.4" x2="448" y2="79.6"/>
		<line class="st5" x1="412" y1="41.6" x2="443.1" y2="81.8"/>
		<line class="st5" x1="406" y1="47.4" x2="440.1" y2="81.8"/>
		<line class="st5" x1="399.7" y1="52.6" x2="438.1" y2="86.1"/>
		<line class="st5" x1="394.6" y1="58.5" x2="446" y2="96.8"/>
		<line class="st5" x1="390.6" y1="65.4" x2="440.1" y2="96.8"/>
		<line class="st5" x1="386.6" y1="72.8" x2="440.1" y2="100"/>
		<line class="st5" x1="383.5" y1="79.6" x2="448" y2="106.5"/>
		<line class="st5" x1="380.3" y1="88.1" x2="446" y2="106.5"/>
		<line class="st5" x1="378.3" y1="96.8" x2="451.5" y2="108.7"/>
		<line class="st5" x1="376.8" y1="104.7" x2="432.9" y2="108.7"/>
		<line class="st5" x1="376.8" y1="112.2" x2="430.2" y2="112.2"/>
		<line class="st5" x1="376.8" y1="121.3" x2="430.2" y2="117"/>
		<line class="st5" x1="378.3" y1="129.2" x2="424.6" y2="121.3"/>
		<line class="st5" x1="380.3" y1="136.8" x2="432.5" y2="122.9"/>
		<line class="st5" x1="383.5" y1="145.1" x2="432.5" y2="125.3"/>
		<line class="st5" x1="386.6" y1="152.2" x2="443.1" y2="125.3"/>
		<line class="st5" x1="390.6" y1="159.7" x2="438.1" y2="129.8"/>
		<line class="st5" x1="394.6" y1="166.4" x2="436.3" y2="135.2"/>
		<line class="st5" x1="399.7" y1="173.1" x2="438.1" y2="138.7"/>
		<line class="st5" x1="406" y1="179.5" x2="438.1" y2="144.8"/>
		<line class="st5" x1="412" y1="184.6" x2="446" y2="139.7"/>
		<line class="st5" x1="417.9" y1="189.4" x2="446" y2="148.6"/>
		<polyline class="st5" points="432.9,197.3 453.6,144.8 424.6,193.3 		"/>
		<line class="st5" x1="440.1" y1="201.2" x2="459.2" y2="139.7"/>
		<line class="st5" x1="448" y1="201.2" x2="462.2" y2="144.8"/>
		<line class="st5" x1="456.3" y1="203.6" x2="462.2" y2="154.2"/>
		<line class="st5" x1="465" y1="203.6" x2="466.6" y2="150.8"/>
		<line class="st5" x1="472.5" y1="203.6" x2="470.9" y2="152.2"/>
		<line class="st5" x1="480.4" y1="203.6" x2="476.5" y2="166.4"/>
		<line class="st5" x1="489.5" y1="201.2" x2="482" y2="170.5"/>
		<line class="st5" x1="496.6" y1="199.3" x2="485" y2="157.3"/>
		<line class="st5" x1="504.5" y1="197.3" x2="489.5" y2="154.2"/>
		<line class="st5" x1="512.1" y1="192.9" x2="492.3" y2="155.9"/>
		<line class="st5" x1="518.8" y1="189.4" x2="499" y2="157.3"/>
		<line class="st5" x1="525.9" y1="185" x2="499" y2="150.8"/>
		<line class="st5" x1="532.4" y1="178.9" x2="508.9" y2="155.9"/>
		<line class="st5" x1="539" y1="173" x2="513.8" y2="154.2"/>
		<line class="st5" x1="542.5" y1="166.4" x2="528.9" y2="157.3"/>
		<line class="st5" x1="548.1" y1="159.7" x2="518.8" y2="147"/>
		<line class="st5" x1="552" y1="152.2" x2="532.4" y2="142.3"/>
	</g>
	<circle class="st6" cx="462.2" cy="112.2" r="95.2"/>
</g>
<g id="Logo">
	<circle class="st7" cx="476.5" cy="112.2" r="74.8"/>
	<g>
		<g>
			<path class="st3" d="M419.9,102.7c1.1,0.5,3,1,4.8,1c1.7,0,2.5-0.5,2.5-1.4c0-0.8-0.8-1.3-2.9-1.9c-3.1-1-5.2-2.5-5.2-5
				c0-2.9,2.8-5.2,7.5-5.2c2.2,0,3.8,0.4,5,0.9l-1,3.6c-0.8-0.3-2.2-0.8-4-0.8c-1.5,0-2.3,0.5-2.3,1.2c0,0.8,1,1.2,3.3,2
				c3.3,1.1,4.8,2.7,4.8,5c0,2.9-2.5,5.3-7.9,5.3c-2.2,0-4.4-0.5-5.5-1L419.9,102.7z"/>
			<path class="st3" d="M440,90.4v9.4c0,2.5,1,3.9,2.9,3.9c2,0,2.9-1.3,2.9-3.9v-9.4h5v9.2c0,5.1-2.9,7.7-8.1,7.7
				c-5.1,0-7.8-2.5-7.8-7.8v-9.1H440z"/>
			<path class="st3" d="M470,101.1c-0.1-1.9-0.1-4.1-0.1-6.7h-0.1c-0.6,2.2-1.4,4.7-2,6.5l-1.8,5.8h-3.9l-1.6-5.8
				c-0.5-1.8-1-4.3-1.5-6.5H459c-0.1,2.3-0.2,4.8-0.3,6.7l-0.3,6h-4.6l1.1-16.7h6.7l1.2,4.5c0.5,1.9,1.1,4.1,1.4,6.1h0.1
				c0.5-2,1.1-4.4,1.7-6.1l1.4-4.4h6.5l0.9,16.7h-4.8L470,101.1z"/>
			<path class="st3" d="M493.8,101.1c-0.1-1.9-0.1-4.1-0.1-6.7h-0.1c-0.6,2.2-1.4,4.7-2,6.5l-1.8,5.8h-3.9l-1.6-5.8
				c-0.5-1.8-1-4.3-1.5-6.5h-0.1c-0.1,2.3-0.2,4.8-0.3,6.7l-0.3,6h-4.6l1.1-16.7h6.7l1.2,4.5c0.5,1.9,1.1,4.1,1.4,6.1h0.1
				c0.5-2,1.1-4.4,1.7-6.1l1.4-4.4h6.5l0.9,16.7H494L493.8,101.1z"/>
			<path class="st3" d="M513.6,100.4h-6.7v3.1h7.5v3.6h-12.4V90.4h12v3.6h-7.1v2.7h6.7V100.4z"/>
			<path class="st3" d="M517.1,90.7c1.4-0.2,3.5-0.4,6-0.4c2.8,0,4.9,0.4,6.3,1.3c1.2,0.8,1.8,2,1.8,3.6c0,2.1-1.7,3.6-3.2,4v0.1
				c1.2,0.5,1.9,1.5,2.4,3c0.6,1.7,1.2,4.1,1.5,4.8h-5.1c-0.3-0.5-0.8-1.8-1.3-3.8c-0.5-2-1.2-2.4-2.7-2.4h-0.8v6.2h-4.9V90.7z
				 M522.1,97.7h1.3c1.9,0,3-0.8,3-2.1s-0.9-2-2.6-2c-0.9,0-1.4,0-1.7,0.1V97.7z"/>
		</g>
	</g>
	<g>
		<g>
			<path class="st3" d="M422.5,111h-1.9v-1.5h5.7v1.5h-1.9v5.1h-1.9V111z"/>
			<path class="st3" d="M429.2,109.5v2.4h2.4v-2.4h1.9v6.5h-1.9v-2.6h-2.4v2.6h-1.9v-6.5H429.2z"/>
			<path class="st3" d="M439.4,113.4h-2.6v1.2h2.9v1.4h-4.9v-6.5h4.7v1.4h-2.8v1.1h2.6V113.4z"/>
			<path class="st3" d="M442.7,114.5l-0.4,1.5h-2l2.1-6.5h2.6l2.2,6.5h-2.1l-0.5-1.5H442.7z M444.3,113.2L444,112
				c-0.1-0.4-0.2-0.9-0.4-1.3h0c-0.1,0.4-0.2,0.9-0.3,1.3l-0.3,1.2H444.3z"/>
			<path class="st3" d="M449.5,111h-1.9v-1.5h5.7v1.5h-1.9v5.1h-1.9V111z"/>
			<path class="st3" d="M454.2,109.6c0.5-0.1,1.4-0.1,2.3-0.1c1.1,0,1.9,0.1,2.5,0.5c0.5,0.3,0.7,0.8,0.7,1.4c0,0.8-0.7,1.4-1.2,1.6
				v0c0.5,0.2,0.7,0.6,0.9,1.2c0.2,0.7,0.5,1.6,0.6,1.9h-2c-0.1-0.2-0.3-0.7-0.5-1.5c-0.2-0.8-0.5-0.9-1.1-0.9h-0.3v2.4h-1.9V109.6z
				 M456.2,112.3h0.5c0.7,0,1.2-0.3,1.2-0.8c0-0.5-0.4-0.8-1-0.8c-0.4,0-0.6,0-0.7,0V112.3z"/>
			<path class="st3" d="M465.5,113.4h-2.6v1.2h2.9v1.4h-4.9v-6.5h4.7v1.4h-2.8v1.1h2.6V113.4z"/>
			<path class="st3" d="M469,109.5h4.7v1.4h-2.7v1.2h2.6v1.4h-2.6v2.5H469V109.5z"/>
			<path class="st3" d="M479.4,113.4h-2.6v1.2h2.9v1.4h-4.9v-6.5h4.7v1.4h-2.8v1.1h2.6V113.4z"/>
			<path class="st3" d="M480.9,114.3c0.4,0.2,1.2,0.4,1.9,0.4c0.7,0,1-0.2,1-0.5c0-0.3-0.3-0.5-1.1-0.7c-1.2-0.4-2-1-2-2
				c0-1.2,1.1-2,2.9-2c0.9,0,1.5,0.1,2,0.3l-0.4,1.4c-0.3-0.1-0.9-0.3-1.6-0.3c-0.6,0-0.9,0.2-0.9,0.5c0,0.3,0.4,0.5,1.3,0.8
				c1.3,0.4,1.9,1.1,1.9,2c0,1.1-1,2.1-3.1,2.1c-0.9,0-1.7-0.2-2.1-0.4L480.9,114.3z"/>
			<path class="st3" d="M488.3,111h-1.9v-1.5h5.7v1.5h-1.9v5.1h-1.9V111z"/>
			<path class="st3" d="M494.9,109.5v6.5H493v-6.5H494.9z"/>
			<path class="st3" d="M498,116l-2.3-6.5h2.1l0.8,2.6c0.2,0.7,0.4,1.4,0.6,2.3h0c0.2-0.8,0.4-1.5,0.6-2.3l0.8-2.6h2.1l-2.4,6.5H498
				z"/>
			<path class="st3" d="M505.4,114.5L505,116h-2l2.1-6.5h2.6l2.2,6.5h-2.1l-0.5-1.5H505.4z M507,113.2l-0.3-1.2
				c-0.1-0.4-0.2-0.9-0.4-1.3h0c-0.1,0.4-0.2,0.9-0.3,1.3l-0.3,1.2H507z"/>
			<path class="st3" d="M510.8,109.5h1.9v5.1h2.8v1.5h-4.7V109.5z"/>
		</g>
	</g>
	<g>
		<g>
			<path class="st3" d="M423.6,135.6l-4.3-16.7h5.3l1.1,6.2c0.3,1.9,0.7,4.1,1,5.9h0.1c0.3-1.9,0.7-3.9,1.1-5.9l1.2-6.1h5.3l1.1,6.4
				c0.3,1.9,0.6,3.6,0.8,5.5h0.1c0.3-1.9,0.6-3.8,0.9-5.8l1.1-6.1h5l-4.6,16.7h-5.4l-1.3-6.5c-0.3-1.5-0.5-3-0.8-5h-0.1
				c-0.3,2-0.6,3.5-0.9,5l-1.4,6.5H423.6z"/>
			<path class="st3" d="M463.1,127.1c0,5.4-3.6,8.8-9.3,8.8c-5.8,0-8.9-3.9-8.9-8.5c0-4.8,3.5-8.7,9.2-8.7
				C460.1,118.6,463.1,122.6,463.1,127.1z M450.1,127.3c0,3.1,1.5,5,3.9,5c2.4,0,3.8-2.1,3.8-5.1c0-2.9-1.4-5-3.8-5
				C451.6,122.2,450.1,124.2,450.1,127.3z"/>
			<path class="st3" d="M465.8,119.1c1.4-0.2,3.5-0.4,6-0.4c2.8,0,4.9,0.4,6.3,1.3c1.2,0.8,1.8,2,1.8,3.6c0,2.1-1.7,3.6-3.2,4v0.1
				c1.2,0.5,1.9,1.5,2.4,3c0.6,1.7,1.2,4.1,1.5,4.8h-5.1c-0.3-0.5-0.8-1.8-1.3-3.8c-0.5-2-1.2-2.4-2.7-2.4h-0.8v6.2h-4.9V119.1z
				 M470.7,126.1h1.3c1.9,0,3-0.8,3-2.1s-0.9-2-2.6-2c-0.9,0-1.4,0-1.7,0.1V126.1z"/>
			<path class="st3" d="M482.8,118.9h4.9v7.1h0.1c0.4-0.6,0.8-1.2,1.2-1.8l3.6-5.2h6.1l-5.9,7.1l6.1,9.6h-5.8l-3.9-6.8l-1.5,1.7v5
				h-4.9V118.9z"/>
			<path class="st3" d="M500.9,131.1c1.1,0.5,3,1,4.8,1c1.7,0,2.5-0.5,2.5-1.4c0-0.8-0.8-1.3-2.9-1.9c-3.1-1-5.2-2.5-5.2-5
				c0-2.9,2.8-5.2,7.5-5.2c2.2,0,3.8,0.4,5,0.9l-1,3.6c-0.8-0.3-2.2-0.8-4-0.8c-1.5,0-2.3,0.5-2.3,1.2c0,0.8,1,1.2,3.3,2
				c3.3,1.1,4.8,2.7,4.8,5c0,2.9-2.5,5.3-7.9,5.3c-2.2,0-4.4-0.5-5.5-1L500.9,131.1z"/>
		</g>
	</g>
</g>
<g id="Tekst_achtergrond">
	<path class="st0" d="M-475.1,21"/>
	<rect x="36" y="21.6" class="st0" width="104.4" height="44.3"/>
	<g>
		<g>
			<line class="st8" x1="36" y1="21" x2="36.5" y2="21"/>
			<line class="st9" x1="37.5" y1="21" x2="139.4" y2="21"/>
			<line class="st8" x1="139.9" y1="21" x2="140.4" y2="21"/>
		</g>
	</g>
	<g>
		<g>
			<line class="st8" x1="36" y1="66.6" x2="36.5" y2="66.6"/>
			<line class="st9" x1="37.5" y1="66.6" x2="139.4" y2="66.6"/>
			<line class="st8" x1="139.9" y1="66.6" x2="140.4" y2="66.6"/>
		</g>
	</g>
	<g>
		<g>
			<line class="st8" x1="36" y1="81.8" x2="36.5" y2="81.8"/>
			<line class="st9" x1="37.5" y1="81.8" x2="139.4" y2="81.8"/>
			<line class="st8" x1="139.9" y1="81.8" x2="140.4" y2="81.8"/>
		</g>
	</g>
	<g>
		<g>
			<line class="st8" x1="36" y1="96.8" x2="36.5" y2="96.8"/>
			<line class="st9" x1="37.5" y1="96.8" x2="139.4" y2="96.8"/>
			<line class="st8" x1="139.9" y1="96.8" x2="140.4" y2="96.8"/>
		</g>
	</g>
	<g>
		<g>
			<line class="st8" x1="36" y1="112.2" x2="36.5" y2="112.2"/>
			<line class="st9" x1="37.5" y1="112.2" x2="139.4" y2="112.2"/>
			<line class="st8" x1="139.9" y1="112.2" x2="140.4" y2="112.2"/>
		</g>
	</g>
</g>
<g id="Tekst">
	<g>
		<g>
			<path d="M43.3,59.3l-0.7,2.4h-2.2l2.9-9.4h2.8l2.9,9.4h-2.3L46,59.3H43.3z M45.7,57.7l-0.6-2c-0.2-0.6-0.3-1.3-0.5-1.8h0
				c-0.1,0.6-0.3,1.3-0.4,1.8l-0.6,2H45.7z"/>
			<path d="M50.5,57.1c0-1,0-1.7-0.1-2.3h1.8l0.1,1.3h0.1c0.4-1,1.2-1.4,1.9-1.4c0.2,0,0.3,0,0.5,0v2c-0.2,0-0.3-0.1-0.6-0.1
				c-0.8,0-1.3,0.4-1.5,1.1c0,0.1,0,0.3,0,0.5v3.5h-2.1V57.1z"/>
			<path d="M58.5,52.9v2H60v1.6h-1.5v2.5c0,0.8,0.2,1.2,0.8,1.2c0.3,0,0.5,0,0.6-0.1l0,1.6c-0.3,0.1-0.8,0.2-1.4,0.2
				c-0.7,0-1.3-0.2-1.6-0.6c-0.4-0.4-0.6-1.1-0.6-2v-2.8h-0.9v-1.6h0.9v-1.5L58.5,52.9z"/>
			<path d="M61.5,59.8c0.4,0.2,1.2,0.5,1.8,0.5c0.6,0,0.9-0.2,0.9-0.6c0-0.4-0.2-0.5-1-0.8c-1.4-0.5-2-1.2-2-2
				c0-1.3,1.1-2.3,2.8-2.3c0.8,0,1.5,0.2,1.9,0.4l-0.4,1.5c-0.3-0.2-0.9-0.4-1.5-0.4c-0.5,0-0.8,0.2-0.8,0.6c0,0.3,0.3,0.5,1.1,0.8
				c1.3,0.4,1.8,1.1,1.9,2.1c0,1.3-1,2.2-3,2.2c-0.9,0-1.7-0.2-2.2-0.5L61.5,59.8z"/>
			<path d="M71.1,52.2h5.8V54h-3.6v2.2h3.4v1.7h-3.4v3.8h-2.1V52.2z"/>
			<path d="M80.3,58.9c0.1,0.9,0.9,1.3,1.9,1.3c0.7,0,1.3-0.1,1.9-0.3l0.3,1.4c-0.7,0.3-1.6,0.4-2.5,0.4c-2.3,0-3.7-1.4-3.7-3.5
				c0-1.7,1.1-3.7,3.5-3.7c2.2,0,3.1,1.7,3.1,3.4c0,0.4,0,0.7-0.1,0.8H80.3z M82.8,57.5c0-0.5-0.2-1.4-1.2-1.4
				c-0.9,0-1.3,0.8-1.3,1.4H82.8z"/>
			<path d="M86.3,59.8c0.4,0.2,1.2,0.5,1.8,0.5c0.6,0,0.9-0.2,0.9-0.6c0-0.4-0.2-0.5-1-0.8c-1.4-0.5-2-1.2-2-2
				c0-1.3,1.1-2.3,2.8-2.3c0.8,0,1.5,0.2,1.9,0.4l-0.4,1.5c-0.3-0.2-0.9-0.4-1.5-0.4c-0.5,0-0.8,0.2-0.8,0.6c0,0.3,0.3,0.5,1.1,0.8
				c1.3,0.4,1.8,1.1,1.9,2.1c0,1.3-1,2.2-3,2.2c-0.9,0-1.7-0.2-2.2-0.5L86.3,59.8z"/>
			<path d="M95.1,52.9v2h1.5v1.6h-1.5v2.5c0,0.8,0.2,1.2,0.8,1.2c0.3,0,0.5,0,0.6-0.1l0,1.6c-0.3,0.1-0.8,0.2-1.4,0.2
				c-0.7,0-1.3-0.2-1.6-0.6c-0.4-0.4-0.6-1.1-0.6-2v-2.8h-0.9v-1.6H93v-1.5L95.1,52.9z"/>
			<path d="M100.3,52.9c0,0.6-0.4,1.1-1.1,1.1c-0.7,0-1.1-0.5-1.1-1.1c0-0.6,0.4-1.1,1.1-1.1C99.9,51.9,100.3,52.3,100.3,52.9z
				 M98.1,61.7v-6.9h2.1v6.9H98.1z"/>
			<path d="M103.8,54.8l0.9,3.2c0.2,0.6,0.3,1.1,0.4,1.7h0c0.1-0.6,0.2-1.1,0.4-1.7l0.9-3.2h2.2l-2.6,6.9H104l-2.5-6.9H103.8z"/>
			<path d="M113.8,61.7l-0.1-0.7h0c-0.4,0.5-1.1,0.8-2,0.8c-1.4,0-2.2-1-2.2-2.1c0-1.8,1.6-2.6,4-2.6V57c0-0.4-0.2-0.9-1.3-0.9
				c-0.7,0-1.4,0.2-1.9,0.5l-0.4-1.4c0.5-0.3,1.4-0.6,2.7-0.6c2.3,0,3,1.3,3,3V60c0,0.7,0,1.3,0.1,1.7H113.8z M113.6,58.4
				c-1.1,0-2,0.3-2,1.1c0,0.6,0.4,0.8,0.8,0.8c0.5,0,1-0.3,1.1-0.8c0-0.1,0-0.2,0-0.4V58.4z"/>
			<path d="M117.6,51.7h2.1v9.9h-2.1V51.7z"/>
		</g>
	</g>
	<g>
		<g>
			<path d="M43,39.8h-2.5V38h7.3v1.8h-2.6v7.6H43V39.8z"/>
			<path d="M49,37.5h2.1v3.9h0c0.2-0.3,0.5-0.5,0.8-0.7c0.3-0.2,0.7-0.3,1.1-0.3c1.4,0,2.4,0.9,2.4,3v4h-2.1v-3.8
				c0-0.9-0.3-1.5-1.1-1.5c-0.6,0-0.9,0.4-1.1,0.8c-0.1,0.1-0.1,0.3-0.1,0.5v4.1H49V37.5z"/>
			<path d="M59.1,44.7c0.1,0.9,0.9,1.3,1.9,1.3c0.7,0,1.3-0.1,1.9-0.3l0.3,1.4c-0.7,0.3-1.6,0.4-2.5,0.4c-2.3,0-3.7-1.4-3.7-3.5
				c0-1.7,1.1-3.7,3.5-3.7c2.2,0,3.1,1.7,3.1,3.4c0,0.4,0,0.7-0.1,0.8H59.1z M61.6,43.2c0-0.5-0.2-1.4-1.2-1.4
				c-0.9,0-1.3,0.8-1.3,1.4H61.6z"/>
			<path d="M69.1,47.4l-0.1-0.7h0c-0.4,0.5-1.1,0.8-2,0.8c-1.4,0-2.2-1-2.2-2.1c0-1.8,1.6-2.6,4-2.6v-0.1c0-0.4-0.2-0.9-1.3-0.9
				c-0.7,0-1.4,0.2-1.9,0.5L65.2,41c0.5-0.3,1.4-0.6,2.7-0.6c2.3,0,3,1.3,3,3v2.4c0,0.7,0,1.3,0.1,1.7H69.1z M68.8,44.2
				c-1.1,0-2,0.3-2,1.1c0,0.6,0.4,0.8,0.8,0.8c0.5,0,1-0.3,1.1-0.8c0-0.1,0-0.2,0-0.4V44.2z"/>
			<path d="M75.2,38.6v2h1.5v1.6h-1.5v2.5c0,0.8,0.2,1.2,0.8,1.2c0.3,0,0.5,0,0.6-0.1l0,1.6c-0.3,0.1-0.8,0.2-1.4,0.2
				c-0.7,0-1.3-0.2-1.6-0.6c-0.4-0.4-0.6-1.1-0.6-2v-2.8h-0.9v-1.6h0.9v-1.5L75.2,38.6z"/>
			<path d="M78.3,42.8c0-1,0-1.7-0.1-2.3H80l0.1,1.3h0.1c0.4-1,1.2-1.4,1.9-1.4c0.2,0,0.3,0,0.5,0v2c-0.2,0-0.3-0.1-0.6-0.1
				c-0.8,0-1.3,0.4-1.5,1.1c0,0.1,0,0.3,0,0.5v3.5h-2.1V42.8z"/>
			<path d="M85.5,44.7c0.1,0.9,0.9,1.3,1.9,1.3c0.7,0,1.3-0.1,1.9-0.3l0.3,1.4c-0.7,0.3-1.6,0.4-2.5,0.4c-2.3,0-3.7-1.4-3.7-3.5
				c0-1.7,1.1-3.7,3.5-3.7c2.2,0,3.1,1.7,3.1,3.4c0,0.4,0,0.7-0.1,0.8H85.5z M88,43.2c0-0.5-0.2-1.4-1.2-1.4c-0.9,0-1.3,0.8-1.3,1.4
				H88z"/>
			<path d="M98.5,47.4l-0.1-0.7h0c-0.4,0.5-1.1,0.8-2,0.8c-1.4,0-2.2-1-2.2-2.1c0-1.8,1.6-2.6,4-2.6v-0.1c0-0.4-0.2-0.9-1.3-0.9
				c-0.7,0-1.4,0.2-1.9,0.5L94.7,41c0.5-0.3,1.4-0.6,2.7-0.6c2.3,0,3,1.3,3,3v2.4c0,0.7,0,1.3,0.1,1.7H98.5z M98.3,44.2
				c-1.1,0-2,0.3-2,1.1c0,0.6,0.4,0.8,0.8,0.8c0.5,0,1-0.3,1.1-0.8c0-0.1,0-0.2,0-0.4V44.2z"/>
			<path d="M102.3,42.8c0-0.9,0-1.6-0.1-2.2h1.8l0.1,0.9h0c0.3-0.4,1-1.1,2.1-1.1c1.4,0,2.5,0.9,2.5,3v4.1h-2.1v-3.8
				c0-0.9-0.3-1.5-1.1-1.5c-0.6,0-0.9,0.4-1.1,0.8c-0.1,0.1-0.1,0.3-0.1,0.5v4h-2.1V42.8z"/>
			<path d="M117.4,37.5v7.9c0,0.8,0,1.6,0.1,2h-1.9l-0.1-1h0c-0.4,0.8-1.3,1.2-2.1,1.2c-1.6,0-2.9-1.4-2.9-3.5
				c0-2.3,1.4-3.6,3.1-3.6c0.8,0,1.5,0.3,1.8,0.8h0v-3.7H117.4z M115.3,43.5c0-0.1,0-0.3,0-0.4c-0.1-0.6-0.6-1-1.2-1
				c-1,0-1.5,0.9-1.5,1.9c0,1.2,0.6,1.9,1.5,1.9c0.6,0,1.1-0.4,1.2-1c0-0.1,0-0.3,0-0.5V43.5z"/>
		</g>
	</g>
	<g>
		<g>
			<path d="M43,27.2h-2.5v-1.8h7.3v1.8h-2.6v7.6H43V27.2z"/>
			<path d="M55.8,31.3c0,2.5-1.8,3.7-3.6,3.7c-2,0-3.5-1.3-3.5-3.5c0-2.2,1.5-3.6,3.7-3.6C54.4,27.8,55.8,29.3,55.8,31.3z
				 M50.8,31.4c0,1.2,0.5,2.1,1.4,2.1c0.8,0,1.4-0.8,1.4-2.1c0-1-0.4-2.1-1.4-2.1C51.2,29.3,50.8,30.4,50.8,31.4z"/>
			<path d="M57.4,30.2c0-1,0-1.7-0.1-2.3h1.8l0.1,1.3h0.1c0.4-1,1.2-1.4,1.9-1.4c0.2,0,0.3,0,0.5,0v2c-0.2,0-0.3-0.1-0.6-0.1
				c-0.8,0-1.3,0.4-1.5,1.1c0,0.1,0,0.3,0,0.5v3.5h-2.1V30.2z"/>
			<path d="M69.7,31.3c0,2.5-1.8,3.7-3.6,3.7c-2,0-3.5-1.3-3.5-3.5c0-2.2,1.5-3.6,3.7-3.6C68.3,27.8,69.7,29.3,69.7,31.3z
				 M64.8,31.4c0,1.2,0.5,2.1,1.4,2.1c0.8,0,1.4-0.8,1.4-2.1c0-1-0.4-2.1-1.4-2.1C65.2,29.3,64.8,30.4,64.8,31.4z"/>
			<path d="M71.3,30.2c0-0.9,0-1.6-0.1-2.2h1.8l0.1,0.9h0c0.3-0.4,1-1.1,2.1-1.1c1.4,0,2.5,0.9,2.5,3v4.1h-2.1V31
				c0-0.9-0.3-1.5-1.1-1.5c-0.6,0-0.9,0.4-1.1,0.8c-0.1,0.1-0.1,0.3-0.1,0.5v4h-2.1V30.2z"/>
			<path d="M82.2,26v2h1.5v1.6h-1.5V32c0,0.8,0.2,1.2,0.8,1.2c0.3,0,0.5,0,0.6-0.1l0,1.6c-0.3,0.1-0.8,0.2-1.4,0.2
				c-0.7,0-1.3-0.2-1.6-0.6c-0.4-0.4-0.6-1.1-0.6-2v-2.8h-0.9V28h0.9v-1.5L82.2,26z"/>
			<path d="M92,31.3c0,2.5-1.8,3.7-3.6,3.7c-2,0-3.5-1.3-3.5-3.5c0-2.2,1.5-3.6,3.7-3.6C90.6,27.8,92,29.3,92,31.3z M87,31.4
				c0,1.2,0.5,2.1,1.4,2.1c0.8,0,1.4-0.8,1.4-2.1c0-1-0.4-2.1-1.4-2.1C87.4,29.3,87,30.4,87,31.4z"/>
			<path d="M96.1,25.2c-0.4,1.4-1,2.7-1.7,3.8l-1.3,0.1c0.4-1.2,0.8-2.6,1-3.8L96.1,25.2z"/>
			<path d="M97.5,33c0.4,0.2,1.2,0.5,1.8,0.5c0.6,0,0.9-0.2,0.9-0.6c0-0.4-0.2-0.5-1-0.8c-1.4-0.5-2-1.2-2-2c0-1.3,1.1-2.3,2.8-2.3
				c0.8,0,1.5,0.2,1.9,0.4l-0.4,1.5c-0.3-0.2-0.9-0.4-1.5-0.4c-0.5,0-0.8,0.2-0.8,0.6c0,0.3,0.3,0.5,1.1,0.8
				c1.3,0.4,1.8,1.1,1.9,2.1c0,1.3-1,2.2-3,2.2c-0.9,0-1.7-0.2-2.2-0.5L97.5,33z"/>
			<path d="M109.2,25.4v9.4H107v-9.4H109.2z"/>
			<path d="M111.2,30.2c0-0.9,0-1.6-0.1-2.2h1.8l0.1,0.9h0c0.3-0.4,1-1.1,2.1-1.1c1.4,0,2.5,0.9,2.5,3v4.1h-2.1V31
				c0-0.9-0.3-1.5-1.1-1.5c-0.6,0-0.9,0.4-1.1,0.8c-0.1,0.1-0.1,0.3-0.1,0.5v4h-2.1V30.2z"/>
			<path d="M126.4,24.9v7.9c0,0.8,0,1.6,0.1,2h-1.9l-0.1-1h0c-0.4,0.8-1.3,1.2-2.1,1.2c-1.6,0-2.9-1.4-2.9-3.5
				c0-2.3,1.4-3.6,3.1-3.6c0.8,0,1.5,0.3,1.8,0.8h0v-3.7H126.4z M124.2,30.9c0-0.1,0-0.3,0-0.4c-0.1-0.6-0.6-1-1.2-1
				c-1,0-1.5,0.9-1.5,1.9c0,1.2,0.6,1.9,1.5,1.9c0.6,0,1.1-0.4,1.2-1c0-0.1,0-0.3,0-0.5V30.9z"/>
			<path d="M130.5,26.1c0,0.6-0.4,1.1-1.1,1.1c-0.7,0-1.1-0.5-1.1-1.1c0-0.6,0.4-1.1,1.1-1.1C130.1,25,130.5,25.4,130.5,26.1z
				 M128.3,34.8V28h2.1v6.9H128.3z"/>
			<path d="M134.1,32.1c0.1,0.9,0.9,1.3,1.9,1.3c0.7,0,1.3-0.1,1.9-0.3l0.3,1.4c-0.7,0.3-1.6,0.4-2.5,0.4c-2.3,0-3.7-1.4-3.7-3.5
				c0-1.7,1.1-3.7,3.5-3.7c2.2,0,3.1,1.7,3.1,3.4c0,0.4,0,0.7-0.1,0.8H134.1z M136.6,30.6c0-0.5-0.2-1.4-1.2-1.4
				c-0.9,0-1.3,0.8-1.3,1.4H136.6z"/>
		</g>
	</g>
	<g>
		<g>
			<path d="M45.6,77.4c-0.3,0.2-1,0.3-1.8,0.3c-1.6,0-3.2-1-3.2-3.4c0-2,1.3-3.5,3.4-3.5c0.9,0,1.4,0.2,1.6,0.3l-0.2,0.4
				c-0.3-0.2-0.8-0.3-1.4-0.3c-1.8,0-2.9,1.2-2.9,3.1c0,1.8,1,3,2.8,3c0.6,0,1.1-0.1,1.5-0.3L45.6,77.4z"/>
			<path d="M46.8,75.2c0,1.5,0.8,2.1,1.8,2.1c0.7,0,1.1-0.1,1.3-0.3l0.1,0.4c-0.2,0.1-0.7,0.3-1.5,0.3c-1.4,0-2.2-1-2.2-2.4
				c0-1.6,0.9-2.6,2.2-2.6c1.6,0,1.9,1.5,1.9,2.2c0,0.1,0,0.2,0,0.3H46.8z M49.8,74.8c0-0.7-0.3-1.7-1.4-1.7c-1.1,0-1.5,0.9-1.6,1.7
				H49.8z"/>
			<path d="M51.6,70.5H52v7.1h-0.5V70.5z"/>
			<path d="M53.8,75.2c0,1.5,0.8,2.1,1.8,2.1c0.7,0,1.1-0.1,1.3-0.3l0.1,0.4c-0.2,0.1-0.7,0.3-1.5,0.3c-1.4,0-2.2-1-2.2-2.4
				c0-1.6,0.9-2.6,2.2-2.6c1.6,0,1.9,1.5,1.9,2.2c0,0.1,0,0.2,0,0.3H53.8z M56.8,74.8c0-0.7-0.3-1.7-1.4-1.7c-1.1,0-1.5,0.9-1.6,1.7
				H56.8z"/>
			<path d="M58.5,77.6c0-0.3,0-0.8,0-1.1v-6H59v3.2h0c0.3-0.6,0.9-1,1.8-1c1.2,0,2.1,1,2.1,2.5c0,1.7-1.1,2.6-2.1,2.6
				c-0.8,0-1.3-0.3-1.7-1h0l0,0.9H58.5z M59,75.8c0,0.1,0,0.2,0,0.4c0.2,0.7,0.8,1.2,1.6,1.2c1.1,0,1.7-0.9,1.7-2.2
				c0-1.1-0.6-2.1-1.7-2.1c-0.7,0-1.4,0.5-1.6,1.3c0,0.1-0.1,0.3-0.1,0.4V75.8z"/>
			<path d="M64.1,74.3c0-0.5,0-1,0-1.4h0.4l0,1h0c0.2-0.6,0.7-1.1,1.4-1.1c0.1,0,0.1,0,0.2,0v0.5c-0.1,0-0.1,0-0.2,0
				c-0.7,0-1.1,0.6-1.3,1.3c0,0.1,0,0.3,0,0.5v2.6h-0.5V74.3z"/>
			<path d="M69.6,77.6l-0.1-0.7h0c-0.2,0.4-0.8,0.8-1.5,0.8c-1,0-1.4-0.7-1.4-1.3c0-1.1,1-1.8,2.9-1.8v-0.1c0-0.5-0.1-1.4-1.2-1.4
				c-0.4,0-0.9,0.1-1.2,0.4l-0.2-0.3c0.4-0.3,1-0.4,1.4-0.4c1.4,0,1.6,1,1.6,1.9v1.9c0,0.4,0,0.8,0.1,1.1H69.6z M69.5,75.1
				c-1,0-2.4,0.1-2.4,1.3c0,0.7,0.5,1,1,1c0.8,0,1.3-0.5,1.4-1c0-0.1,0-0.2,0-0.3V75.1z"/>
			<path d="M72.2,71.4v1.4h1.4v0.4h-1.4v3.1c0,0.6,0.2,1,0.7,1c0.2,0,0.4,0,0.5-0.1l0.1,0.4c-0.2,0.1-0.4,0.1-0.7,0.1
				c-0.3,0-0.6-0.1-0.8-0.3c-0.2-0.3-0.3-0.7-0.3-1.1v-3h-0.8v-0.4h0.8v-1.2L72.2,71.4z"/>
			<path d="M75.3,71.5c0,0.2-0.1,0.4-0.4,0.4c-0.2,0-0.4-0.2-0.4-0.4c0-0.2,0.2-0.4,0.4-0.4C75.1,71.1,75.3,71.2,75.3,71.5z
				 M74.6,77.6v-4.8h0.5v4.8H74.6z"/>
			<path d="M76.7,74c0-0.4,0-0.8,0-1.1h0.4l0,0.9h0c0.3-0.5,0.9-1,1.7-1c0.5,0,1.7,0.2,1.7,2v2.9H80v-2.8c0-0.9-0.3-1.7-1.3-1.7
				c-0.7,0-1.3,0.5-1.4,1.1c0,0.1-0.1,0.3-0.1,0.4v3h-0.5V74z"/>
			<path d="M85.9,72.8c0,0.4,0,0.7,0,1.2v2.9c0,1.2-0.3,1.8-0.7,2.2c-0.4,0.4-1.1,0.6-1.6,0.6c-0.5,0-1.2-0.1-1.5-0.4l0.2-0.4
				c0.3,0.2,0.8,0.4,1.4,0.4c1,0,1.7-0.5,1.7-1.9v-0.7h0c-0.3,0.5-0.8,0.9-1.7,0.9c-1.2,0-2.1-1.1-2.1-2.4c0-1.7,1.1-2.6,2.2-2.6
				c0.9,0,1.4,0.5,1.6,0.9h0l0-0.8H85.9z M85.4,74.7c0-0.2,0-0.3-0.1-0.5c-0.2-0.6-0.7-1.1-1.5-1.1c-1,0-1.7,0.8-1.7,2.1
				c0,1.1,0.6,2,1.7,2c0.6,0,1.2-0.4,1.5-1.1c0.1-0.2,0.1-0.3,0.1-0.5V74.7z"/>
			<path d="M89.4,77.6v-0.3l0.6-0.6c1.8-1.8,2.6-2.7,2.6-3.8c0-0.7-0.3-1.5-1.4-1.5c-0.6,0-1.1,0.3-1.4,0.6l-0.2-0.3
				c0.4-0.4,1-0.7,1.7-0.7c1.3,0,1.8,1,1.8,1.8c0,1.3-0.9,2.3-2.6,3.9L90,77.2v0h3.2v0.4H89.4z"/>
			<path d="M98.3,74.3c0,2.3-0.8,3.4-2.1,3.4c-1,0-2-1-2-3.3c0-2.4,1-3.4,2.1-3.4C97.4,71,98.3,72.1,98.3,74.3z M94.7,74.4
				c0,1.8,0.6,2.9,1.6,2.9c1.1,0,1.6-1.2,1.6-3c0-1.7-0.5-2.9-1.6-2.9C95.3,71.4,94.7,72.5,94.7,74.4z"/>
			<path d="M103.2,77.6v-2.9l-2.1-3.8h0.5l1.1,2c0.3,0.5,0.5,1,0.8,1.5h0c0.2-0.5,0.5-0.9,0.8-1.5l1.2-2h0.5l-2.3,3.8v2.9H103.2z"/>
			<path d="M106.8,75.2c0,1.5,0.8,2.1,1.8,2.1c0.7,0,1.1-0.1,1.3-0.3l0.1,0.4c-0.2,0.1-0.7,0.3-1.5,0.3c-1.4,0-2.2-1-2.2-2.4
				c0-1.6,0.9-2.6,2.2-2.6c1.6,0,1.9,1.5,1.9,2.2c0,0.1,0,0.2,0,0.3H106.8z M109.8,74.8c0-0.7-0.3-1.7-1.4-1.7
				c-1.1,0-1.5,0.9-1.6,1.7H109.8z"/>
			<path d="M114.2,77.6l-0.1-0.7h0c-0.2,0.4-0.8,0.8-1.5,0.8c-1,0-1.4-0.7-1.4-1.3c0-1.1,1-1.8,2.9-1.8v-0.1c0-0.5-0.1-1.4-1.2-1.4
				c-0.4,0-0.9,0.1-1.2,0.4l-0.2-0.3c0.4-0.3,1-0.4,1.4-0.4c1.4,0,1.6,1,1.6,1.9v1.9c0,0.4,0,0.8,0.1,1.1H114.2z M114.1,75.1
				c-1,0-2.4,0.1-2.4,1.3c0,0.7,0.5,1,1,1c0.8,0,1.3-0.5,1.4-1c0-0.1,0-0.2,0-0.3V75.1z"/>
			<path d="M116.1,74.3c0-0.5,0-1,0-1.4h0.4l0,1h0c0.2-0.6,0.7-1.1,1.4-1.1c0.1,0,0.1,0,0.2,0v0.5c-0.1,0-0.1,0-0.2,0
				c-0.7,0-1.1,0.6-1.3,1.3c0,0.1,0,0.3,0,0.5v2.6h-0.5V74.3z"/>
			<path d="M118.8,77c0.3,0.2,0.6,0.3,1.1,0.3c0.8,0,1.1-0.4,1.1-0.9c0-0.5-0.3-0.8-1-1.1c-0.8-0.3-1.2-0.7-1.2-1.3
				c0-0.7,0.5-1.3,1.5-1.3c0.4,0,0.8,0.1,1.1,0.3l-0.2,0.4c-0.2-0.1-0.5-0.3-1-0.3c-0.6,0-0.9,0.4-0.9,0.8c0,0.5,0.3,0.7,1,1
				c0.8,0.3,1.2,0.7,1.2,1.4c0,0.8-0.6,1.4-1.6,1.4c-0.5,0-0.9-0.1-1.2-0.3L118.8,77z"/>
		</g>
	</g>
	<g>
		<g>
			<path d="M42.3,91.1L41.7,93h-1.3l2.2-6.7h1.6l2.2,6.7H45l-0.6-1.9H42.3z M44.2,90.2l-0.5-1.7c-0.1-0.4-0.2-0.9-0.3-1.3h0
				c-0.1,0.4-0.2,0.9-0.3,1.3l-0.5,1.7H44.2z"/>
			<path d="M51.6,91.6c0,0.6,0,1.1,0,1.5h-1.1l-0.1-0.7h0c-0.2,0.3-0.7,0.8-1.6,0.8c-0.9,0-1.7-0.5-1.7-2.1v-2.9h1.2v2.6
				c0,0.8,0.3,1.3,0.9,1.3c0.5,0,0.8-0.3,0.9-0.7c0-0.1,0.1-0.2,0.1-0.4v-2.9h1.2V91.6z"/>
			<path d="M57.4,88.2c0,0.3,0,0.7,0,1.4v2.8c0,1-0.2,1.7-0.7,2.2c-0.5,0.5-1.2,0.6-1.9,0.6c-0.6,0-1.3-0.1-1.7-0.4l0.3-0.9
				c0.3,0.2,0.8,0.4,1.4,0.4c0.8,0,1.4-0.4,1.4-1.5v-0.4h0c-0.3,0.4-0.8,0.7-1.4,0.7c-1.2,0-2.1-1-2.1-2.4c0-1.6,1-2.6,2.2-2.6
				c0.7,0,1.2,0.4,1.4,0.8h0l0-0.6H57.4z M56.1,90.1c0-0.1,0-0.2,0-0.3c-0.1-0.5-0.5-0.8-1-0.8c-0.7,0-1.2,0.6-1.2,1.6
				c0,0.8,0.4,1.5,1.2,1.5c0.5,0,0.9-0.3,1-0.7c0-0.1,0.1-0.3,0.1-0.4V90.1z"/>
			<path d="M63,91.6c0,0.6,0,1.1,0,1.5H62l-0.1-0.7h0c-0.2,0.3-0.7,0.8-1.6,0.8c-0.9,0-1.7-0.5-1.7-2.1v-2.9h1.2v2.6
				c0,0.8,0.3,1.3,0.9,1.3c0.5,0,0.8-0.3,0.9-0.7c0-0.1,0.1-0.2,0.1-0.4v-2.9H63V91.6z"/>
			<path d="M64.3,91.9c0.3,0.2,0.8,0.4,1.2,0.4c0.5,0,0.8-0.2,0.8-0.5c0-0.3-0.2-0.5-0.8-0.7c-1-0.3-1.3-0.8-1.3-1.4
				c0-0.9,0.7-1.5,1.8-1.5c0.5,0,1,0.1,1.3,0.3l-0.2,0.9c-0.2-0.1-0.6-0.3-1-0.3c-0.4,0-0.7,0.2-0.7,0.5c0,0.3,0.2,0.5,0.8,0.7
				c0.9,0.3,1.3,0.8,1.3,1.5c0,0.9-0.7,1.5-2,1.5c-0.6,0-1.1-0.1-1.5-0.3L64.3,91.9z"/>
			<path d="M69.9,86.8v1.4h1.2v0.9h-1.2v2.1c0,0.6,0.2,0.9,0.6,0.9c0.2,0,0.4,0,0.5-0.1l0,0.9c-0.2,0.1-0.5,0.1-0.9,0.1
				c-0.5,0-0.8-0.2-1.1-0.4c-0.3-0.3-0.4-0.7-0.4-1.4v-2.3H68v-0.9h0.7v-1.1L69.9,86.8z"/>
			<path d="M78,87.6h-2.5l-0.2,1.3c0.1,0,0.3,0,0.5,0c0.6,0,1.1,0.1,1.6,0.4c0.5,0.3,0.9,0.9,0.9,1.6c0,1.2-1,2.3-2.6,2.3
				c-0.8,0-1.4-0.2-1.7-0.4l0.3-0.9c0.3,0.2,0.8,0.3,1.4,0.3c0.7,0,1.4-0.4,1.4-1.2c0-0.7-0.5-1.2-1.8-1.2c-0.4,0-0.6,0-0.9,0.1
				l0.4-3.3H78V87.6z"/>
			<path d="M81.6,90v0.8h-2.5V90H81.6z"/>
			<path d="M84.3,87.7L84.3,87.7l-1.2,0.6l-0.2-0.9l1.6-0.8h1V93h-1.2V87.7z"/>
			<path d="M91.9,87.6h-2.5l-0.2,1.3c0.1,0,0.3,0,0.5,0c0.6,0,1.1,0.1,1.6,0.4c0.5,0.3,0.9,0.9,0.9,1.6c0,1.2-1,2.3-2.6,2.3
				c-0.8,0-1.4-0.2-1.7-0.4l0.3-0.9c0.3,0.2,0.8,0.3,1.4,0.3c0.7,0,1.4-0.4,1.4-1.2c0-0.7-0.5-1.2-1.8-1.2c-0.4,0-0.6,0-0.9,0.1
				l0.4-3.3h3.4V87.6z"/>
			<path d="M92.7,94.3c0.3-0.8,0.5-1.8,0.7-2.6l1.3-0.1c-0.3,0.9-0.7,2-1.1,2.7L92.7,94.3z"/>
			<path d="M97.5,93v-0.7l0.8-0.7c1.5-1.4,2.2-2.2,2.3-3.1c0-0.6-0.3-1.1-1.2-1.1c-0.6,0-1.1,0.3-1.4,0.5l-0.4-0.9
				c0.5-0.4,1.2-0.7,2-0.7c1.4,0,2.1,0.9,2.1,2c0,1.1-0.8,2.1-2,3.1L99.3,92v0h2.7v1H97.5z"/>
			<path d="M107.5,89.8c0,2.1-0.8,3.4-2.4,3.4c-1.5,0-2.3-1.4-2.3-3.3c0-2,0.9-3.4,2.4-3.4C106.7,86.4,107.5,87.8,107.5,89.8z
				 M104,89.8c0,1.6,0.4,2.4,1.1,2.4c0.7,0,1.1-0.9,1.1-2.4c0-1.5-0.4-2.4-1.1-2.4C104.5,87.4,104,88.2,104,89.8z"/>
			<path d="M110.2,87.7L110.2,87.7l-1.2,0.6l-0.2-0.9l1.6-0.8h1V93h-1.2V87.7z"/>
			<path d="M118.2,89.8c0,2.1-0.8,3.4-2.4,3.4c-1.5,0-2.3-1.4-2.3-3.3c0-2,0.9-3.4,2.4-3.4C117.5,86.4,118.2,87.8,118.2,89.8z
				 M114.7,89.8c0,1.6,0.4,2.4,1.1,2.4c0.7,0,1.1-0.9,1.1-2.4c0-1.5-0.4-2.4-1.1-2.4C115.2,87.4,114.7,88.2,114.7,89.8z"/>
		</g>
	</g>
	<g>
		<g>
			<path d="M40.7,107c0.3,0.2,0.8,0.4,1.3,0.4c0.9,0,1.5-0.5,1.5-1.3c0-0.7-0.4-1.1-1.2-1.4c-1-0.3-1.6-0.8-1.6-1.7
				c0-0.9,0.7-1.5,1.8-1.5c0.6,0,1,0.1,1.2,0.3l-0.2,0.4c-0.2-0.1-0.6-0.3-1.1-0.3c-1,0-1.3,0.6-1.3,1.1c0,0.7,0.4,1,1.3,1.4
				c1,0.4,1.5,0.9,1.5,1.8c0,0.9-0.6,1.7-1.9,1.7c-0.5,0-1.1-0.2-1.4-0.4L40.7,107z"/>
			<path d="M48.4,106.6c0,0.4,0,0.7,0,1.1h-0.4l0-0.8h0c-0.2,0.4-0.7,0.9-1.5,0.9c-0.5,0-1.5-0.3-1.5-1.9v-2.5h0.4v2.4
				c0,0.9,0.3,1.6,1.1,1.6c0.6,0,1.1-0.4,1.3-0.9c0-0.1,0.1-0.3,0.1-0.5v-2.7h0.4V106.6z"/>
			<path d="M49.9,104.4c0-0.4,0-0.7,0-1h0.4l0,0.8h0c0.3-0.5,0.7-0.9,1.4-0.9c0.6,0,1.1,0.4,1.2,0.9h0c0.1-0.3,0.3-0.5,0.4-0.6
				c0.3-0.2,0.6-0.4,1-0.4c0.4,0,1.4,0.2,1.4,1.9v2.5h-0.4v-2.5c0-1-0.4-1.5-1.1-1.5c-0.5,0-1,0.4-1.1,0.9c0,0.1-0.1,0.3-0.1,0.4
				v2.8h-0.4V105c0-0.8-0.4-1.4-1.1-1.4c-0.6,0-1,0.5-1.2,1c0,0.1-0.1,0.3-0.1,0.4v2.7h-0.4V104.4z"/>
			<path d="M57.3,104.4c0-0.4,0-0.7,0-1h0.4l0,0.8h0c0.3-0.5,0.7-0.9,1.4-0.9c0.6,0,1.1,0.4,1.2,0.9h0c0.1-0.3,0.3-0.5,0.4-0.6
				c0.3-0.2,0.6-0.4,1-0.4c0.4,0,1.4,0.2,1.4,1.9v2.5h-0.4v-2.5c0-1-0.4-1.5-1.1-1.5c-0.5,0-1,0.4-1.1,0.9c0,0.1-0.1,0.3-0.1,0.4
				v2.8H60V105c0-0.8-0.4-1.4-1.1-1.4c-0.6,0-1,0.5-1.2,1c0,0.1-0.1,0.3-0.1,0.4v2.7h-0.4V104.4z"/>
			<path d="M64.7,105.5c0,1.4,0.8,1.9,1.6,1.9c0.6,0,1-0.1,1.2-0.2l0.1,0.3c-0.2,0.1-0.6,0.3-1.4,0.3c-1.2,0-2-0.9-2-2.2
				c0-1.4,0.8-2.3,1.9-2.3c1.4,0,1.7,1.3,1.7,2c0,0.1,0,0.2,0,0.3H64.7z M67.5,105.1c0-0.6-0.2-1.5-1.3-1.5c-0.9,0-1.4,0.9-1.4,1.5
				H67.5z"/>
			<path d="M69,104.6c0-0.4,0-0.9,0-1.3h0.4l0,0.9h0c0.2-0.5,0.6-1,1.2-1c0.1,0,0.1,0,0.2,0v0.4c-0.1,0-0.1,0-0.2,0
				c-0.6,0-1,0.5-1.1,1.2c0,0.1,0,0.3,0,0.4v2.4H69V104.6z"/>
			<path d="M71.6,103.3l0.7,2.5c0.1,0.5,0.3,0.9,0.4,1.4h0c0.1-0.4,0.3-0.9,0.4-1.4l0.9-2.5h0.4l0.8,2.4c0.2,0.5,0.3,1,0.4,1.4h0
				c0.1-0.4,0.2-0.8,0.4-1.4l0.8-2.5h0.4l-1.4,4.3h-0.4l-0.8-2.4c-0.2-0.5-0.3-1-0.4-1.5h0c-0.1,0.5-0.3,1-0.5,1.5l-0.9,2.4h-0.4
				l-1.3-4.3H71.6z"/>
			<path d="M81.8,105.5c0,1.6-1.1,2.3-2.1,2.3c-1.1,0-2-0.9-2-2.2c0-1.5,1-2.3,2-2.3C81,103.2,81.8,104.1,81.8,105.5z M78.2,105.5
				c0,1.1,0.7,1.9,1.6,1.9c0.9,0,1.6-0.8,1.6-1.9c0-0.8-0.4-1.9-1.6-1.9C78.7,103.6,78.2,104.6,78.2,105.5z"/>
			<path d="M82.9,104.6c0-0.4,0-0.9,0-1.3h0.4l0,0.9h0c0.2-0.5,0.6-1,1.2-1c0.1,0,0.1,0,0.2,0v0.4c-0.1,0-0.1,0-0.2,0
				c-0.6,0-1,0.5-1.1,1.2c0,0.1,0,0.3,0,0.4v2.4h-0.4V104.6z"/>
			<path d="M86,105.4L86,105.4c0.1-0.1,0.3-0.3,0.4-0.5l1.5-1.6h0.5l-1.7,1.8l2,2.5h-0.5l-1.8-2.3l-0.4,0.5v1.8h-0.4v-6.4H86V105.4z
				"/>
			<path d="M89.2,107.1c0.2,0.1,0.6,0.3,1,0.3c0.7,0,1-0.4,1-0.8c0-0.5-0.3-0.7-0.9-1c-0.7-0.3-1.1-0.7-1.1-1.2
				c0-0.6,0.5-1.2,1.3-1.2c0.4,0,0.7,0.1,1,0.3l-0.2,0.3c-0.1-0.1-0.4-0.3-0.9-0.3c-0.5,0-0.8,0.4-0.8,0.7c0,0.5,0.3,0.6,0.9,0.9
				c0.7,0.3,1.1,0.6,1.1,1.3c0,0.7-0.6,1.2-1.5,1.2c-0.4,0-0.8-0.1-1.1-0.3L89.2,107.1z"/>
			<path d="M92.5,107.4c0-0.2,0.2-0.4,0.4-0.4c0.2,0,0.4,0.2,0.4,0.4c0,0.2-0.1,0.4-0.4,0.4C92.7,107.8,92.5,107.6,92.5,107.4z"/>
			<path d="M97.3,107.5c-0.2,0.1-0.6,0.3-1.3,0.3c-1.2,0-2.1-0.9-2.1-2.2c0-1.4,0.9-2.3,2.2-2.3c0.5,0,1,0.2,1.1,0.3l-0.2,0.4
				c-0.2-0.1-0.5-0.3-1-0.3c-1.2,0-1.8,0.9-1.8,1.9c0,1.1,0.7,1.9,1.7,1.9c0.5,0,0.8-0.1,1.1-0.3L97.3,107.5z"/>
			<path d="M100.7,107.7l-0.1-0.6h0c-0.2,0.3-0.7,0.7-1.4,0.7c-0.9,0-1.3-0.6-1.3-1.2c0-1,0.9-1.6,2.6-1.6v-0.1
				c0-0.4-0.1-1.3-1.1-1.3c-0.4,0-0.8,0.1-1.1,0.3l-0.1-0.3c0.4-0.3,0.9-0.4,1.3-0.4c1.2,0,1.5,0.9,1.5,1.7v1.7c0,0.3,0,0.7,0.1,1
				H100.7z M100.6,105.4c-0.9,0-2.2,0.1-2.2,1.2c0,0.6,0.4,0.9,0.9,0.9c0.7,0,1.1-0.4,1.3-0.9c0-0.1,0-0.2,0-0.3V105.4z"/>
		</g>
	</g>
</g>
</svg>
