<?xml version="1.0" encoding="utf-8"?>
<!-- Generator: Adobe Illustrator 23.1.0, SVG Export Plug-In . SVG Version: 6.00 Build 0)  -->
<svg version="1.1" xmlns="http://www.w3.org/2000/svg" xmlns:xlink="http://www.w3.org/1999/xlink" x="0px" y="0px"
	 viewBox="0 0 750 1334" style="enable-background:new 0 0 750 1334;" xml:space="preserve">
<style type="text/css">
	.st0{fill:#F7E826;}
	.st1{fill:#130D0F;}
	.st2{fill:#29A9E1;}
	.st3{fill:#FFFFFF;}
	.st4{fill:#191910;}
</style>
<g id="Layer_1">
</g>
<g id="driehoek_geel_boven">
	<polygon class="st0" points="1,258 751,258 376,432.9 	"/>
</g>
<g id="Driehoek_geel_midden">
	<polygon class="st0" points="379.8,485.5 746.1,658.4 379.8,839.7 4.8,662.6 	"/>
</g>
<g id="Driehoek_geel_onder">
	<polygon class="st0" points="376,889.2 751,1065.2 1,1065.2 	"/>
</g>
<g id="Driehoek_zwart_links">
	<polygon class="st1" points="4.8,312.7 321.5,460.6 4.8,610.6 	"/>
</g>
<g id="Driehoek_zwart_rechts">
	<polygon class="st1" points="746.1,716.8 425.2,862.7 746.1,1014.7 	"/>
</g>
<g id="Driehoek_blauw_links">
	<polygon class="st2" points="1,716.8 1,1014.7 319.7,865.8 	"/>
</g>
<g id="Driehoek_blauw_rechts">
	<polygon class="st2" points="745.1,312.7 426.3,461.6 745.1,610.6 	"/>
</g>
<g id="Blauwe_cirkel">
	<circle class="st2" cx="376" cy="338.2" r="50.5"/>
</g>
<g id="Witte_cirkel">
	<circle class="st3" cx="376" cy="988.7" r="50.5"/>
</g>
<g id="Baluwe_maan">
	<path class="st2" d="M67.4,405.7c0,0,43.7-18.7,69.4,22.2c0,0,18.7,26.3,3.5,57.6c0,0-7.6,24.4-46.5,31.3c0,0-16.7,1.4-26.4-2.8
		c0,0,25.7-10.4,36.1-36.1C103.5,478,119.5,427.3,67.4,405.7z"/>
</g>
<g id="Gele_zon">
	<polygon class="st0" points="630.8,401.5 642.6,418.2 655.8,401.5 658.9,421.4 677.3,411.4 673.9,431.4 694,429.7 682.2,446.7 
		700.6,452.6 684.3,464.1 698.9,478 678.4,479.4 686,496.7 668,492.5 667.3,512.7 652.3,498.8 644,517.1 634.6,499.8 619.3,512.7 
		619.3,492.2 599.2,498.8 607.5,478.7 585.7,478 603,464.1 585.7,453.3 603.7,447.1 592.3,430.1 613.1,431.4 608.9,412.3 627,422.8 
			"/>
</g>
<g id="Zwarte_zon">
	<polygon class="st4" points="369.2,553.8 377.1,588.7 384.9,553.8 388,588.7 400,557.5 400,590.8 416.6,563.2 411.4,595.5 
		431.2,570.5 420.8,599.7 445.3,579.9 429.6,607.5 455.7,591.8 438.5,614.8 465.1,605.4 443.7,625.7 472.9,620 448.4,636.6 
		478.1,636.6 451,648.1 480.2,651.2 451.5,660.6 480.2,668.4 451,671 477.6,683.5 447.9,683.5 472.3,698.6 442.7,695 464.5,713.7 
		438,704.9 457.2,728.3 430.2,713.2 444.2,738.7 421.3,721.5 430.7,748.6 409.9,726.7 416.6,754.3 400.5,732.5 400.5,762.1 388,734 
		385.9,765.8 377.1,735.1 369.2,765.8 364,733.5 353.1,763.2 353.1,731.4 337.5,758.5 341.6,726.7 322.4,749.1 332.3,721.5 
		309.3,740.3 323.9,713.2 298.4,727.8 316.6,703.8 288.5,714.8 310.4,695 279.7,700.7 305.7,684 276,685.1 301.5,672 271.8,669.4 
		302.6,659.8 271.8,652.8 302.6,649.1 276,636.6 304.7,637.2 279.7,620 308.8,626.2 284.9,604.3 316.1,616.3 295.3,590.3 325,609.6 
		308.3,579.9 332.8,600.2 321.8,568.9 342.7,593.9 335.9,561.1 353.6,588.7 351.5,556.4 365.6,589.2 	"/>
</g>
<g id="Witte_wolk_bol_1">
	<circle class="st3" cx="106.8" cy="848.8" r="34.7"/>
</g>
<g id="Witte_wolk_bolk_2">
	<circle class="st3" cx="142.9" cy="868.3" r="31.9"/>
</g>
<g id="Witte_wolk_bol_3">
	<circle class="st3" cx="109.6" cy="886.1" r="19.2"/>
</g>
<g id="Witte_wolk_bol_4">
	<circle class="st3" cx="70.8" cy="868.3" r="36.7"/>
</g>
<g id="Gele_ster">
	<polygon class="st0" points="643.5,798.8 628.9,843.2 581,843.2 619.2,871 606,914.7 643.5,889.2 682.4,914.7 667.1,871 
		705.3,842.5 658.1,842.5 	"/>
</g>
<g id="achtergrond">
</g>
</svg>
