<svg xmlns="http://www.w3.org/2000/svg" viewBox="0 0 1920 1079.72"><defs><style>.cls-1{fill:#f7e826;}.cls-2{fill:#130d0f;}.cls-3{fill:#29a9e1;}.cls-4{fill:#fff;}.cls-5{fill:#191910;}</style></defs><title>Kunstwerk - Desktop met achtergrond</title><g id="driehoek_geel_boven" data-name="driehoek geel boven"><polygon class="cls-1" points="461.76 2.03 1463 2.03 962.38 235.63 461.76 2.03"/></g><g id="Driehoek_geel_midden" data-name="Driehoek geel midden"><polygon class="cls-1" points="967.51 305.85 1456.48 536.68 967.51 778.63 466.89 542.24 967.51 305.85"/></g><g id="Driehoek_geel_onder" data-name="Driehoek geel onder"><polygon class="cls-1" points="962.38 844.68 1463 1079.72 461.76 1079.72 962.38 844.68"/></g><g id="Driehoek_zwart_links" data-name="Driehoek zwart links"><polygon class="cls-2" points="466.89 75.11 889.57 272.56 466.89 472.79 466.89 75.11"/></g><g id="Driehoek_zwart_rechts" data-name="Driehoek zwart rechts"><polygon class="cls-2" points="1456.48 614.63 1028.09 809.3 1456.48 1012.32 1456.48 614.63"/></g><g id="Driehoek_blauw_links" data-name="Driehoek blauw links"><polygon class="cls-3" points="461.76 614.63 461.76 1012.32 887.21 813.47 461.76 614.63"/></g><g id="Driehoek_blauw_rechts" data-name="Driehoek blauw rechts"><polygon class="cls-3" points="1455.09 75.11 1029.47 273.95 1455.09 472.79 1455.09 75.11"/></g><g id="Blauwe_cirkel" data-name="Blauwe cirkel"><circle class="cls-3" cx="962.38" cy="109.19" r="67.46"/></g><g id="Witte_cirkel" data-name="Witte cirkel"><circle class="cls-4" cx="962.38" cy="977.55" r="67.46"/></g><g id="Baluwe_maan" data-name="Baluwe maan"><path class="cls-3" d="M550.38,202.33s58.4-25,92.7,29.66c0,0,25,35.07,4.63,76.86,0,0-10.19,32.53-62.11,41.8,0,0-22.24,1.85-35.22-3.71,0,0,34.3-13.91,48.2-48.21C598.58,298.73,619.9,231.06,550.38,202.33Z" transform="translate(0 -3)"/></g><g id="Gele_zon" data-name="Gele zon"><polygon class="cls-1" points="1302.54 193.61 1318.3 216.01 1335.91 193.61 1340.08 220.18 1364.65 206.9 1360.01 233.63 1386.89 231.31 1371.13 254.02 1395.7 261.9 1373.92 277.19 1393.38 295.73 1366.04 297.59 1376.23 320.76 1352.13 315.2 1351.2 342.08 1331.27 323.55 1320.15 347.94 1307.63 324.94 1287.24 342.08 1287.24 314.74 1260.36 323.55 1271.48 296.66 1242.28 295.73 1265.46 277.19 1242.28 262.82 1266.38 254.48 1251.09 231.77 1278.9 233.63 1273.34 208.13 1297.44 222.04 1302.54 193.61"/></g><g id="Zwarte_zon" data-name="Zwarte zon"><polygon class="cls-5" points="953.34 397.01 963.85 443.59 974.2 397.01 978.37 443.59 994.36 401.88 994.36 446.37 1016.61 409.52 1009.66 452.63 1036.08 419.26 1022.17 458.19 1054.85 431.77 1033.99 468.62 1068.76 447.76 1045.81 478.36 1081.27 465.84 1052.76 492.96 1091.7 485.31 1059.02 507.56 1098.65 507.56 1062.5 522.85 1101.43 527.02 1063.19 539.54 1101.43 549.97 1062.5 553.44 1097.96 570.13 1058.33 570.13 1091 590.29 1051.37 585.43 1080.57 610.46 1045.12 598.64 1070.84 629.92 1034.69 609.76 1053.46 643.83 1022.87 620.88 1035.38 657.04 1007.57 627.84 1016.61 664.68 995.06 635.48 995.06 675.11 978.37 637.57 975.59 679.98 963.85 638.96 953.34 679.98 946.39 636.88 931.79 676.5 931.79 634.09 910.93 670.25 916.49 627.84 890.77 657.73 903.98 620.88 873.39 645.91 892.85 609.76 858.79 629.23 883.12 597.25 845.58 611.85 874.78 585.43 833.76 593.07 868.52 570.83 828.89 572.22 862.96 554.83 823.33 551.36 864.35 538.5 823.33 529.11 864.35 524.24 828.89 507.56 867.13 508.25 833.76 485.31 872.69 493.65 840.71 464.45 882.42 480.44 854.62 445.68 894.25 471.4 872 431.77 904.67 458.89 890.07 417.17 917.88 450.55 908.85 406.74 932.48 443.59 929.7 400.49 948.48 444.29 953.34 397.01"/></g><g id="Witte_wolk_bol_1" data-name="Witte wolk bol 1"><circle class="cls-4" cx="603.05" cy="790.76" r="46.35"/></g><g id="Witte_wolk_bolk_2" data-name="Witte wolk bolk 2"><circle class="cls-4" cx="651.15" cy="816.78" r="42.61"/></g><g id="Witte_wolk_bol_3" data-name="Witte wolk bol 3"><circle class="cls-4" cx="606.78" cy="840.61" r="25.58"/></g><g id="Witte_wolk_bol_4" data-name="Witte wolk bol 4"><circle class="cls-4" cx="554.94" cy="816.78" r="49.02"/></g><g id="Gele_ster" data-name="Gele ster"><polygon class="cls-1" points="1319.45 724.01 1299.99 783.34 1236.02 783.34 1287.01 820.42 1269.39 878.83 1319.45 844.68 1371.37 878.83 1350.97 820.42 1401.96 782.42 1338.92 782.42 1319.45 724.01"/></g><g id="achtergrond"><rect class="cls-1" y="1" width="409" height="1078"/><rect class="cls-1" x="1511" width="409" height="1078"/></g></svg>