<svg xmlns="http://www.w3.org/2000/svg" viewBox="0 0 1001.24 1077.69"><defs><style>.cls-1{fill:#f7e826;}.cls-2{fill:#130d0f;}.cls-3{fill:#29a9e1;}.cls-4{fill:#fff;}.cls-5{fill:#191910;}</style></defs><title>Kunstwerk - Desktop</title><g id="driehoek_geel_boven" data-name="driehoek geel boven"><polygon class="cls-1" points="0 0 1001.24 0 500.62 233.61 0 0"/></g><g id="Driehoek_geel_midden" data-name="Driehoek geel midden"><polygon class="cls-1" points="505.75 303.83 994.72 534.65 505.75 776.61 5.13 540.22 505.75 303.83"/></g><g id="Driehoek_geel_onder" data-name="Driehoek geel onder"><polygon class="cls-1" points="500.62 842.65 1001.24 1077.69 0 1077.69 500.62 842.65"/></g><g id="Driehoek_zwart_links" data-name="Driehoek zwart links"><polygon class="cls-2" points="5.13 73.08 427.81 270.53 5.13 470.77 5.13 73.08"/></g><g id="Driehoek_zwart_rechts" data-name="Driehoek zwart rechts"><polygon class="cls-2" points="994.72 612.6 566.33 807.27 994.72 1010.29 994.72 612.6"/></g><g id="Driehoek_blauw_links" data-name="Driehoek blauw links"><polygon class="cls-3" points="0 612.6 0 1010.29 425.45 811.45 0 612.6"/></g><g id="Driehoek_blauw_rechts" data-name="Driehoek blauw rechts"><polygon class="cls-3" points="993.33 73.08 567.72 271.92 993.33 470.77 993.33 73.08"/></g><g id="Blauwe_cirkel" data-name="Blauwe cirkel"><circle class="cls-3" cx="500.62" cy="107.17" r="67.46"/></g><g id="Witte_cirkel" data-name="Witte cirkel"><circle class="cls-4" cx="500.62" cy="975.53" r="67.46"/></g><g id="Baluwe_maan" data-name="Baluwe maan"><path class="cls-3" d="M550.38,202.33s58.4-25,92.7,29.66c0,0,25,35.07,4.63,76.86,0,0-10.19,32.53-62.11,41.8,0,0-22.24,1.85-35.22-3.71,0,0,34.3-13.91,48.2-48.21C598.58,298.73,619.9,231.06,550.38,202.33Z" transform="translate(-461.76 -5.03)"/></g><g id="Gele_zon" data-name="Gele zon"><polygon class="cls-1" points="840.78 191.58 856.53 213.99 874.15 191.58 878.32 218.16 902.89 204.87 898.25 231.6 925.13 229.28 909.38 251.99 933.94 259.87 912.16 275.17 931.62 293.71 904.28 295.56 914.47 318.74 890.37 313.18 889.44 340.06 869.51 321.52 858.39 345.92 845.88 322.91 825.48 340.06 825.48 312.71 798.6 321.52 809.72 294.64 780.52 293.71 803.7 275.17 780.52 260.8 804.62 252.46 789.33 229.75 817.14 231.6 811.58 206.11 835.68 220.01 840.78 191.58"/></g><g id="Zwarte_zon" data-name="Zwarte zon"><polygon class="cls-5" points="491.58 394.99 502.09 441.57 512.44 394.99 516.61 441.57 532.6 399.85 532.6 444.35 554.85 407.5 547.9 450.61 574.32 417.23 560.41 456.17 593.09 429.75 572.23 466.6 607 445.74 584.05 476.33 619.51 463.82 591 490.93 629.94 483.28 597.26 505.53 636.89 505.53 600.74 520.83 639.67 525 601.43 537.51 639.67 547.94 600.74 551.42 636.2 568.1 596.57 568.1 629.24 588.27 589.61 583.4 618.81 608.43 583.36 596.61 609.08 627.9 572.93 607.73 591.7 641.8 561.11 618.86 573.62 655.01 545.81 625.81 554.85 662.66 533.3 633.46 533.3 673.09 516.61 635.54 513.83 677.96 502.09 636.93 491.58 677.96 484.63 634.85 470.03 674.48 470.03 632.07 449.17 668.22 454.73 625.81 429.01 655.71 442.22 618.86 411.63 643.89 431.09 607.73 397.03 627.2 421.36 595.22 383.82 609.82 413.02 583.4 372 591.05 406.76 568.8 367.13 570.19 401.2 552.81 361.57 549.33 402.59 536.47 361.57 527.08 402.59 522.22 367.13 505.53 405.37 506.23 372 483.28 410.93 491.63 378.95 462.43 420.67 478.42 392.86 443.65 432.49 469.38 410.24 429.75 442.91 456.86 428.31 415.15 456.12 448.52 447.08 404.72 470.72 441.57 467.94 398.46 486.71 442.26 491.58 394.99"/></g><g id="Witte_wolk_bol_1" data-name="Witte wolk bol 1"><circle class="cls-4" cx="141.29" cy="788.73" r="46.35"/></g><g id="Witte_wolk_bolk_2" data-name="Witte wolk bolk 2"><circle class="cls-4" cx="189.39" cy="814.76" r="42.61"/></g><g id="Witte_wolk_bol_3" data-name="Witte wolk bol 3"><circle class="cls-4" cx="145.02" cy="838.58" r="25.58"/></g><g id="Witte_wolk_bol_4" data-name="Witte wolk bol 4"><circle class="cls-4" cx="93.18" cy="814.76" r="49.02"/></g><g id="Gele_ster" data-name="Gele ster"><polygon class="cls-1" points="857.69 721.99 838.23 781.32 774.26 781.32 825.25 818.4 807.63 876.8 857.69 842.65 909.61 876.8 889.21 818.4 940.2 780.39 877.16 780.39 857.69 721.99"/></g></svg>